<svg width="1363" height="167" viewBox="0 0 1363 167" fill="none" xmlns="http://www.w3.org/2000/svg">
<rect width="1363" height="167" rx="15" fill="#F0F0F0"/>
<path d="M0 15C0 6.71573 6.71573 0 15 0H37V167H15C6.71573 167 0 160.284 0 152V15Z" fill="#424241"/>
<path d="M95.1289 40.9375H98.1055L102.488 53.4648L106.871 40.9375H109.848L103.684 58H101.293L95.1289 40.9375ZM93.5234 40.9375H96.4883L97.0273 53.1484V58H93.5234V40.9375ZM108.488 40.9375H111.465V58H107.949V53.1484L108.488 40.9375ZM121.836 54.9648V45.3203H125.211V58H122.035L121.836 54.9648ZM122.211 52.3633L123.207 52.3398C123.207 53.1836 123.109 53.9688 122.914 54.6953C122.719 55.4141 122.426 56.0391 122.035 56.5703C121.645 57.0938 121.152 57.5039 120.559 57.8008C119.965 58.0898 119.266 58.2344 118.461 58.2344C117.844 58.2344 117.273 58.1484 116.75 57.9766C116.234 57.7969 115.789 57.5195 115.414 57.1445C115.047 56.7617 114.758 56.2734 114.547 55.6797C114.344 55.0781 114.242 54.3555 114.242 53.5117V45.3203H117.617V53.5352C117.617 53.9102 117.66 54.2266 117.746 54.4844C117.84 54.7422 117.969 54.9531 118.133 55.1172C118.297 55.2812 118.488 55.3984 118.707 55.4688C118.934 55.5391 119.184 55.5742 119.457 55.5742C120.152 55.5742 120.699 55.4336 121.098 55.1523C121.504 54.8711 121.789 54.4883 121.953 54.0039C122.125 53.5117 122.211 52.9648 122.211 52.3633ZM131.352 40V58H127.965V40H131.352ZM140.352 45.3203V47.7109H132.969V45.3203H140.352ZM134.797 42.1914H138.172V54.1797C138.172 54.5469 138.219 54.8281 138.312 55.0234C138.414 55.2188 138.562 55.3555 138.758 55.4336C138.953 55.5039 139.199 55.5391 139.496 55.5391C139.707 55.5391 139.895 55.5312 140.059 55.5156C140.23 55.4922 140.375 55.4688 140.492 55.4453L140.504 57.9297C140.215 58.0234 139.902 58.0977 139.566 58.1523C139.23 58.207 138.859 58.2344 138.453 58.2344C137.711 58.2344 137.062 58.1133 136.508 57.8711C135.961 57.6211 135.539 57.2227 135.242 56.6758C134.945 56.1289 134.797 55.4102 134.797 54.5195V42.1914ZM145.836 45.3203V58H142.449V45.3203H145.836ZM142.238 42.0156C142.238 41.5234 142.41 41.1172 142.754 40.7969C143.098 40.4766 143.559 40.3164 144.137 40.3164C144.707 40.3164 145.164 40.4766 145.508 40.7969C145.859 41.1172 146.035 41.5234 146.035 42.0156C146.035 42.5078 145.859 42.9141 145.508 43.2344C145.164 43.5547 144.707 43.7148 144.137 43.7148C143.559 43.7148 143.098 43.5547 142.754 43.2344C142.41 42.9141 142.238 42.5078 142.238 42.0156ZM154.988 54.4375L159.008 40.9375H162.922L156.98 58H154.402L154.988 54.4375ZM151.285 40.9375L155.293 54.4375L155.902 58H153.301L147.395 40.9375H151.285ZM169.625 58.2344C168.641 58.2344 167.758 58.0781 166.977 57.7656C166.195 57.4453 165.531 57.0039 164.984 56.4414C164.445 55.8789 164.031 55.2266 163.742 54.4844C163.453 53.7344 163.309 52.9375 163.309 52.0938V51.625C163.309 50.6641 163.445 49.7852 163.719 48.9883C163.992 48.1914 164.383 47.5 164.891 46.9141C165.406 46.3281 166.031 45.8789 166.766 45.5664C167.5 45.2461 168.328 45.0859 169.25 45.0859C170.148 45.0859 170.945 45.2344 171.641 45.5312C172.336 45.8281 172.918 46.25 173.387 46.7969C173.863 47.3438 174.223 48 174.465 48.7656C174.707 49.5234 174.828 50.3672 174.828 51.2969V52.7031H164.75V50.4531H171.512V50.1953C171.512 49.7266 171.426 49.3086 171.254 48.9414C171.09 48.5664 170.84 48.2695 170.504 48.0508C170.168 47.832 169.738 47.7227 169.215 47.7227C168.77 47.7227 168.387 47.8203 168.066 48.0156C167.746 48.2109 167.484 48.4844 167.281 48.8359C167.086 49.1875 166.938 49.6016 166.836 50.0781C166.742 50.5469 166.695 51.0625 166.695 51.625V52.0938C166.695 52.6016 166.766 53.0703 166.906 53.5C167.055 53.9297 167.262 54.3008 167.527 54.6133C167.801 54.9258 168.129 55.168 168.512 55.3398C168.902 55.5117 169.344 55.5977 169.836 55.5977C170.445 55.5977 171.012 55.4805 171.535 55.2461C172.066 55.0039 172.523 54.6406 172.906 54.1562L174.547 55.9375C174.281 56.3203 173.918 56.6875 173.457 57.0391C173.004 57.3906 172.457 57.6797 171.816 57.9062C171.176 58.125 170.445 58.2344 169.625 58.2344ZM180.055 48.0273V58H176.68V45.3203H179.844L180.055 48.0273ZM179.562 51.2148H178.648C178.648 50.2773 178.77 49.4336 179.012 48.6836C179.254 47.9258 179.594 47.2812 180.031 46.75C180.469 46.2109 180.988 45.8008 181.59 45.5195C182.199 45.2305 182.879 45.0859 183.629 45.0859C184.223 45.0859 184.766 45.1719 185.258 45.3438C185.75 45.5156 186.172 45.7891 186.523 46.1641C186.883 46.5391 187.156 47.0352 187.344 47.6523C187.539 48.2695 187.637 49.0234 187.637 49.9141V58H184.238V49.9023C184.238 49.3398 184.16 48.9023 184.004 48.5898C183.848 48.2773 183.617 48.0586 183.312 47.9336C183.016 47.8008 182.648 47.7344 182.211 47.7344C181.758 47.7344 181.363 47.8242 181.027 48.0039C180.699 48.1836 180.426 48.4336 180.207 48.7539C179.996 49.0664 179.836 49.4336 179.727 49.8555C179.617 50.2773 179.562 50.7305 179.562 51.2148ZM197.691 55.2344V40H201.09V58H198.031L197.691 55.2344ZM189.676 51.8125V51.5664C189.676 50.5977 189.785 49.7188 190.004 48.9297C190.223 48.1328 190.543 47.4492 190.965 46.8789C191.387 46.3086 191.906 45.8672 192.523 45.5547C193.141 45.2422 193.844 45.0859 194.633 45.0859C195.375 45.0859 196.023 45.2422 196.578 45.5547C197.141 45.8672 197.617 46.3125 198.008 46.8906C198.406 47.4609 198.727 48.1367 198.969 48.918C199.211 49.6914 199.387 50.5391 199.496 51.4609V52C199.387 52.8828 199.211 53.7031 198.969 54.4609C198.727 55.2188 198.406 55.8828 198.008 56.4531C197.617 57.0156 197.141 57.4531 196.578 57.7656C196.016 58.0781 195.359 58.2344 194.609 58.2344C193.82 58.2344 193.117 58.0742 192.5 57.7539C191.891 57.4336 191.375 56.9844 190.953 56.4062C190.539 55.8281 190.223 55.1484 190.004 54.3672C189.785 53.5859 189.676 52.7344 189.676 51.8125ZM193.051 51.5664V51.8125C193.051 52.3359 193.09 52.8242 193.168 53.2773C193.254 53.7305 193.391 54.1328 193.578 54.4844C193.773 54.8281 194.023 55.0977 194.328 55.293C194.641 55.4805 195.02 55.5742 195.465 55.5742C196.043 55.5742 196.52 55.4453 196.895 55.1875C197.27 54.9219 197.555 54.5586 197.75 54.0977C197.953 53.6367 198.07 53.1055 198.102 52.5039V50.9688C198.078 50.4766 198.008 50.0352 197.891 49.6445C197.781 49.2461 197.617 48.9062 197.398 48.625C197.188 48.3438 196.922 48.125 196.602 47.9688C196.289 47.8125 195.918 47.7344 195.488 47.7344C195.051 47.7344 194.676 47.8359 194.363 48.0391C194.051 48.2344 193.797 48.5039 193.602 48.8477C193.414 49.1914 193.273 49.5977 193.18 50.0664C193.094 50.5273 193.051 51.0273 193.051 51.5664ZM203.188 51.7891V51.543C203.188 50.6133 203.32 49.7578 203.586 48.9766C203.852 48.1875 204.238 47.5039 204.746 46.9258C205.254 46.3477 205.879 45.8984 206.621 45.5781C207.363 45.25 208.215 45.0859 209.176 45.0859C210.137 45.0859 210.992 45.25 211.742 45.5781C212.492 45.8984 213.121 46.3477 213.629 46.9258C214.145 47.5039 214.535 48.1875 214.801 48.9766C215.066 49.7578 215.199 50.6133 215.199 51.543V51.7891C215.199 52.7109 215.066 53.5664 214.801 54.3555C214.535 55.1367 214.145 55.8203 213.629 56.4062C213.121 56.9844 212.496 57.4336 211.754 57.7539C211.012 58.0742 210.16 58.2344 209.199 58.2344C208.238 58.2344 207.383 58.0742 206.633 57.7539C205.891 57.4336 205.262 56.9844 204.746 56.4062C204.238 55.8203 203.852 55.1367 203.586 54.3555C203.32 53.5664 203.188 52.7109 203.188 51.7891ZM206.562 51.543V51.7891C206.562 52.3203 206.609 52.8164 206.703 53.2773C206.797 53.7383 206.945 54.1445 207.148 54.4961C207.359 54.8398 207.633 55.1094 207.969 55.3047C208.305 55.5 208.715 55.5977 209.199 55.5977C209.668 55.5977 210.07 55.5 210.406 55.3047C210.742 55.1094 211.012 54.8398 211.215 54.4961C211.418 54.1445 211.566 53.7383 211.66 53.2773C211.762 52.8164 211.812 52.3203 211.812 51.7891V51.543C211.812 51.0273 211.762 50.543 211.66 50.0898C211.566 49.6289 211.414 49.2227 211.203 48.8711C211 48.5117 210.73 48.2305 210.395 48.0273C210.059 47.8242 209.652 47.7227 209.176 47.7227C208.699 47.7227 208.293 47.8242 207.957 48.0273C207.629 48.2305 207.359 48.5117 207.148 48.8711C206.945 49.2227 206.797 49.6289 206.703 50.0898C206.609 50.543 206.562 51.0273 206.562 51.543ZM220.648 48.0859V58H217.273V45.3203H220.449L220.648 48.0859ZM224.469 45.2383L224.41 48.3672C224.246 48.3438 224.047 48.3242 223.812 48.3086C223.586 48.2852 223.379 48.2734 223.191 48.2734C222.715 48.2734 222.301 48.3359 221.949 48.4609C221.605 48.5781 221.316 48.7539 221.082 48.9883C220.855 49.2227 220.684 49.5078 220.566 49.8438C220.457 50.1797 220.395 50.5625 220.379 50.9922L219.699 50.7812C219.699 49.9609 219.781 49.207 219.945 48.5195C220.109 47.8242 220.348 47.2188 220.66 46.7031C220.98 46.1875 221.371 45.7891 221.832 45.5078C222.293 45.2266 222.82 45.0859 223.414 45.0859C223.602 45.0859 223.793 45.1016 223.988 45.1328C224.184 45.1562 224.344 45.1914 224.469 45.2383Z" fill="#888888"/>
<path d="M101.822 115.1L108.194 86.0078H111.995L114.061 88.4907L107.271 118H103.074L101.822 115.1ZM100.13 86.0078L105.513 115.319L104.129 118H99.2729L92.4834 86.0078H100.13ZM117.554 115.166L122.894 86.0078H130.518L123.729 118H118.895L117.554 115.166ZM114.742 86.0078L121.268 115.275L119.949 118H115.752L108.809 88.4468L110.962 86.0078H114.742ZM141.021 94.2256V118H133.594V94.2256H141.021ZM133.155 88.0952C133.155 87.0405 133.536 86.1763 134.297 85.5024C135.059 84.8286 136.048 84.4917 137.264 84.4917C138.479 84.4917 139.468 84.8286 140.23 85.5024C140.992 86.1763 141.373 87.0405 141.373 88.0952C141.373 89.1499 140.992 90.0142 140.23 90.688C139.468 91.3618 138.479 91.6987 137.264 91.6987C136.048 91.6987 135.059 91.3618 134.297 90.688C133.536 90.0142 133.155 89.1499 133.155 88.0952ZM153.062 100.114V118H145.657V94.2256H152.579L153.062 100.114ZM160.093 94.0498L159.961 100.927C159.668 100.898 159.273 100.861 158.775 100.817C158.277 100.773 157.859 100.751 157.522 100.751C156.658 100.751 155.911 100.854 155.281 101.059C154.666 101.25 154.153 101.542 153.743 101.938C153.348 102.319 153.055 102.802 152.864 103.388C152.688 103.974 152.608 104.655 152.623 105.432L151.282 104.553C151.282 102.956 151.436 101.506 151.744 100.202C152.066 98.8838 152.52 97.7485 153.106 96.7964C153.692 95.8296 154.402 95.0898 155.237 94.5771C156.072 94.0498 157.01 93.7861 158.05 93.7861C158.416 93.7861 158.775 93.8081 159.126 93.8521C159.493 93.896 159.815 93.9619 160.093 94.0498ZM173.716 118.439C171.783 118.439 170.054 118.139 168.531 117.539C167.007 116.923 165.718 116.081 164.664 115.012C163.624 113.942 162.825 112.712 162.269 111.32C161.727 109.929 161.456 108.457 161.456 106.904V106.069C161.456 104.326 161.697 102.714 162.181 101.235C162.664 99.7407 163.382 98.437 164.334 97.3237C165.286 96.2104 166.48 95.3462 167.916 94.731C169.351 94.1011 171.021 93.7861 172.925 93.7861C174.61 93.7861 176.119 94.0571 177.452 94.5991C178.785 95.1411 179.913 95.9175 180.835 96.9282C181.773 97.939 182.483 99.1621 182.967 100.598C183.465 102.033 183.714 103.645 183.714 105.432V108.442H164.29V103.806H176.485V103.234C176.5 102.443 176.36 101.77 176.067 101.213C175.789 100.656 175.379 100.231 174.837 99.9385C174.295 99.6455 173.636 99.499 172.859 99.499C172.054 99.499 171.387 99.6748 170.86 100.026C170.347 100.378 169.944 100.861 169.651 101.477C169.373 102.077 169.175 102.773 169.058 103.564C168.941 104.355 168.882 105.19 168.882 106.069V106.904C168.882 107.783 169 108.581 169.234 109.299C169.483 110.017 169.834 110.632 170.289 111.145C170.757 111.643 171.314 112.031 171.958 112.309C172.618 112.587 173.365 112.727 174.2 112.727C175.21 112.727 176.207 112.536 177.188 112.155C178.169 111.774 179.012 111.145 179.715 110.266L183.077 114.265C182.593 114.953 181.905 115.62 181.011 116.264C180.132 116.909 179.078 117.436 177.847 117.846C176.617 118.242 175.24 118.439 173.716 118.439ZM195.799 118H188.35V92.292C188.35 90.4463 188.724 88.8936 189.471 87.6338C190.218 86.374 191.272 85.4219 192.635 84.7773C193.997 84.1182 195.608 83.7886 197.469 83.7886C198.113 83.7886 198.721 83.8325 199.292 83.9204C199.864 84.0083 200.42 84.1182 200.962 84.25L200.984 89.6992C200.721 89.626 200.45 89.5747 200.171 89.5454C199.893 89.5161 199.549 89.5015 199.139 89.5015C198.421 89.5015 197.813 89.6113 197.315 89.8311C196.817 90.0361 196.436 90.3511 196.172 90.7759C195.923 91.186 195.799 91.6914 195.799 92.292V118ZM200.413 94.2256V99.3672H184.922V94.2256H200.413ZM210.542 100.114V118H203.138V94.2256H210.059L210.542 100.114ZM217.574 94.0498L217.442 100.927C217.149 100.898 216.753 100.861 216.255 100.817C215.757 100.773 215.34 100.751 215.003 100.751C214.139 100.751 213.392 100.854 212.762 101.059C212.146 101.25 211.634 101.542 211.224 101.938C210.828 102.319 210.535 102.802 210.345 103.388C210.169 103.974 210.088 104.655 210.103 105.432L208.763 104.553C208.763 102.956 208.917 101.506 209.224 100.202C209.546 98.8838 210 97.7485 210.586 96.7964C211.172 95.8296 211.883 95.0898 212.718 94.5771C213.553 94.0498 214.49 93.7861 215.53 93.7861C215.896 93.7861 216.255 93.8081 216.607 93.8521C216.973 93.896 217.295 93.9619 217.574 94.0498ZM231.812 112.023V102.224C231.812 101.55 231.717 100.971 231.526 100.488C231.336 100.004 231.036 99.6309 230.625 99.3672C230.215 99.0889 229.666 98.9497 228.978 98.9497C228.421 98.9497 227.945 99.0449 227.549 99.2354C227.154 99.4258 226.854 99.7114 226.648 100.092C226.443 100.473 226.341 100.957 226.341 101.542H218.936C218.936 100.444 219.178 99.4258 219.661 98.4883C220.159 97.5361 220.862 96.7085 221.771 96.0054C222.693 95.3022 223.792 94.7603 225.066 94.3794C226.355 93.9839 227.791 93.7861 229.373 93.7861C231.263 93.7861 232.947 94.1011 234.427 94.731C235.921 95.3608 237.1 96.3057 237.964 97.5654C238.829 98.8105 239.261 100.378 239.261 102.268V112.001C239.261 113.554 239.349 114.733 239.524 115.539C239.7 116.33 239.949 117.026 240.271 117.626V118H232.845C232.493 117.268 232.229 116.374 232.054 115.319C231.893 114.25 231.812 113.151 231.812 112.023ZM232.713 103.476L232.757 107.431H229.483C228.794 107.431 228.208 107.526 227.725 107.717C227.256 107.907 226.875 108.171 226.583 108.508C226.304 108.83 226.099 109.196 225.967 109.606C225.85 110.017 225.792 110.449 225.792 110.903C225.792 111.342 225.894 111.738 226.099 112.089C226.319 112.426 226.612 112.69 226.978 112.88C227.344 113.071 227.754 113.166 228.208 113.166C229.029 113.166 229.725 113.012 230.296 112.705C230.882 112.382 231.329 111.994 231.636 111.54C231.944 111.086 232.098 110.661 232.098 110.266L233.724 113.298C233.431 113.884 233.094 114.477 232.713 115.078C232.347 115.678 231.885 116.235 231.329 116.748C230.787 117.246 230.12 117.656 229.329 117.978C228.538 118.286 227.579 118.439 226.451 118.439C224.986 118.439 223.638 118.139 222.408 117.539C221.192 116.938 220.218 116.103 219.485 115.034C218.753 113.95 218.387 112.705 218.387 111.298C218.387 110.068 218.606 108.969 219.046 108.002C219.5 107.036 220.181 106.215 221.089 105.542C221.998 104.868 223.155 104.355 224.561 104.003C225.967 103.652 227.623 103.476 229.527 103.476H232.713ZM250.84 99.2573V118H243.436V94.2256H250.379L250.84 99.2573ZM249.939 105.3L248.248 105.344C248.248 103.674 248.445 102.136 248.841 100.729C249.236 99.3232 249.822 98.1001 250.599 97.0601C251.375 96.02 252.327 95.2144 253.455 94.6431C254.598 94.0718 255.916 93.7861 257.41 93.7861C258.45 93.7861 259.395 93.9473 260.245 94.2695C261.094 94.5771 261.827 95.0679 262.442 95.7417C263.057 96.4009 263.526 97.2651 263.848 98.3345C264.185 99.3892 264.354 100.656 264.354 102.136V118H256.949V103.081C256.949 102.07 256.832 101.308 256.597 100.795C256.377 100.283 256.055 99.9385 255.63 99.7627C255.206 99.5869 254.686 99.499 254.07 99.499C253.426 99.499 252.847 99.6455 252.334 99.9385C251.822 100.231 251.382 100.642 251.016 101.169C250.665 101.682 250.394 102.29 250.203 102.993C250.027 103.696 249.939 104.465 249.939 105.3ZM263.519 105.3L261.453 105.344C261.453 103.674 261.636 102.136 262.002 100.729C262.383 99.3232 262.947 98.1001 263.694 97.0601C264.456 96.02 265.401 95.2144 266.529 94.6431C267.657 94.0718 268.968 93.7861 270.462 93.7861C271.546 93.7861 272.542 93.9473 273.45 94.2695C274.358 94.5918 275.142 95.1118 275.801 95.8296C276.46 96.5474 276.973 97.4995 277.339 98.686C277.706 99.8579 277.889 101.308 277.889 103.037V118H270.462V103.037C270.462 102.055 270.345 101.315 270.11 100.817C269.891 100.305 269.568 99.9604 269.144 99.7847C268.719 99.5942 268.213 99.499 267.627 99.499C266.924 99.499 266.316 99.6455 265.804 99.9385C265.291 100.231 264.859 100.642 264.507 101.169C264.17 101.682 263.921 102.29 263.76 102.993C263.599 103.696 263.519 104.465 263.519 105.3ZM293.643 118.439C291.709 118.439 289.981 118.139 288.458 117.539C286.934 116.923 285.645 116.081 284.59 115.012C283.55 113.942 282.752 112.712 282.195 111.32C281.653 109.929 281.382 108.457 281.382 106.904V106.069C281.382 104.326 281.624 102.714 282.107 101.235C282.591 99.7407 283.309 98.437 284.261 97.3237C285.213 96.2104 286.407 95.3462 287.842 94.731C289.278 94.1011 290.948 93.7861 292.852 93.7861C294.537 93.7861 296.045 94.0571 297.378 94.5991C298.711 95.1411 299.839 95.9175 300.762 96.9282C301.7 97.939 302.41 99.1621 302.894 100.598C303.392 102.033 303.641 103.645 303.641 105.432V108.442H284.217V103.806H296.412V103.234C296.426 102.443 296.287 101.77 295.994 101.213C295.716 100.656 295.306 100.231 294.764 99.9385C294.222 99.6455 293.562 99.499 292.786 99.499C291.98 99.499 291.314 99.6748 290.787 100.026C290.274 100.378 289.871 100.861 289.578 101.477C289.3 102.077 289.102 102.773 288.985 103.564C288.868 104.355 288.809 105.19 288.809 106.069V106.904C288.809 107.783 288.926 108.581 289.161 109.299C289.41 110.017 289.761 110.632 290.215 111.145C290.684 111.643 291.241 112.031 291.885 112.309C292.544 112.587 293.292 112.727 294.126 112.727C295.137 112.727 296.133 112.536 297.115 112.155C298.096 111.774 298.938 111.145 299.642 110.266L303.003 114.265C302.52 114.953 301.832 115.62 300.938 116.264C300.059 116.909 299.004 117.436 297.774 117.846C296.543 118.242 295.167 118.439 293.643 118.439ZM319.109 111.32C319.109 110.91 318.97 110.559 318.692 110.266C318.428 109.958 317.959 109.68 317.286 109.431C316.612 109.167 315.667 108.903 314.451 108.64C313.294 108.391 312.203 108.061 311.177 107.651C310.167 107.241 309.28 106.743 308.519 106.157C307.757 105.571 307.156 104.875 306.717 104.069C306.292 103.264 306.08 102.341 306.08 101.301C306.08 100.29 306.292 99.3379 306.717 98.4443C307.156 97.5361 307.793 96.7378 308.628 96.0493C309.478 95.3462 310.511 94.7969 311.727 94.4014C312.942 93.9912 314.327 93.7861 315.879 93.7861C318.018 93.7861 319.864 94.1157 321.417 94.7749C322.969 95.4194 324.163 96.3276 324.998 97.4995C325.848 98.6567 326.272 99.9971 326.272 101.521H318.868C318.868 100.92 318.765 100.407 318.56 99.9824C318.37 99.5576 318.055 99.2354 317.615 99.0156C317.176 98.7812 316.59 98.6641 315.857 98.6641C315.345 98.6641 314.876 98.7593 314.451 98.9497C314.041 99.1401 313.711 99.4038 313.462 99.7407C313.213 100.078 313.089 100.473 313.089 100.927C313.089 101.25 313.162 101.542 313.309 101.806C313.47 102.055 313.711 102.29 314.034 102.509C314.356 102.714 314.766 102.905 315.264 103.081C315.762 103.242 316.363 103.388 317.066 103.52C318.663 103.813 320.157 104.23 321.548 104.772C322.94 105.314 324.068 106.083 324.932 107.08C325.811 108.076 326.25 109.416 326.25 111.101C326.25 112.155 326.009 113.129 325.525 114.023C325.042 114.902 324.346 115.678 323.438 116.352C322.53 117.011 321.438 117.524 320.164 117.89C318.89 118.256 317.454 118.439 315.857 118.439C313.587 118.439 311.668 118.037 310.101 117.231C308.533 116.411 307.347 115.385 306.541 114.155C305.75 112.91 305.354 111.65 305.354 110.375H312.254C312.283 111.108 312.459 111.708 312.781 112.177C313.118 112.646 313.565 112.99 314.122 113.21C314.678 113.43 315.323 113.54 316.055 113.54C316.729 113.54 317.286 113.444 317.725 113.254C318.179 113.063 318.523 112.807 318.758 112.485C318.992 112.148 319.109 111.76 319.109 111.32Z" fill="#424241"/>
<path d="M1363 15C1363 6.71573 1356.28 0 1348 0H1134V167H1348C1356.28 167 1363 160.284 1363 152V15Z" fill="#62C6FF"/>
<path fill-rule="evenodd" clip-rule="evenodd" d="M1203 49C1203 47.8954 1203.9 47 1205 47H1292.5C1293.6 47 1294.5 47.8954 1294.5 49V118.996C1294.5 120.101 1293.6 120.996 1292.5 120.996H1205C1203.9 120.996 1203 120.101 1203 118.996V49ZM1207 51V55.4945H1290.5V51H1207ZM1290.5 59.4945H1235.44V116.996H1290.5V59.4945ZM1231.44 116.996V59.4945H1207V116.996H1231.44Z" fill="white"/>
<path fill-rule="evenodd" clip-rule="evenodd" d="M1209.97 64.8004C1209.97 63.6958 1210.87 62.8004 1211.97 62.8004H1225.97C1227.08 62.8004 1227.97 63.6958 1227.97 64.8004V84.1956C1227.97 85.3001 1227.08 86.1956 1225.97 86.1956H1211.97C1210.87 86.1956 1209.97 85.3001 1209.97 84.1956V64.8004ZM1213.97 66.8004V82.1956H1223.97V66.8004H1213.97ZM1239.58 65.6964C1239.58 64.5918 1240.47 63.6964 1241.58 63.6964H1284.5C1285.61 63.6964 1286.5 64.5918 1286.5 65.6964V111.905C1286.5 113.01 1285.61 113.905 1284.5 113.905H1241.58C1240.47 113.905 1239.58 113.01 1239.58 111.905V65.6964ZM1243.58 67.6964V109.905H1282.5V67.6964H1243.58ZM1209.81 95.9363C1209.81 94.8317 1210.71 93.9363 1211.81 93.9363H1220.73C1221.84 93.9363 1222.73 94.8317 1222.73 95.9363C1222.73 97.0409 1221.84 97.9363 1220.73 97.9363H1211.81C1210.71 97.9363 1209.81 97.0409 1209.81 95.9363ZM1209.81 102.936C1209.81 101.832 1210.71 100.936 1211.81 100.936H1226.35C1227.46 100.936 1228.35 101.832 1228.35 102.936C1228.35 104.041 1227.46 104.936 1226.35 104.936H1211.81C1210.71 104.936 1209.81 104.041 1209.81 102.936ZM1209.81 109.936C1209.81 108.832 1210.71 107.936 1211.81 107.936H1220.73C1221.84 107.936 1222.73 108.832 1222.73 109.936C1222.73 111.041 1221.84 111.936 1220.73 111.936H1211.81C1210.71 111.936 1209.81 111.041 1209.81 109.936Z" fill="white"/>
</svg>
