<svg width="1363" height="301" viewBox="0 0 1363 301" fill="none" xmlns="http://www.w3.org/2000/svg">
<rect width="1363" height="301" rx="15" fill="#F0F0F0"/>
<path d="M0 15C0 6.71573 6.71573 0 15 0H37V301H15C6.71573 301 0 294.284 0 286V15Z" fill="#62C6FF"/>
<path d="M99.6538 104.898H107.334L116.062 132.103L124.791 104.898H132.471L119.178 144H112.947L99.6538 104.898ZM94.981 104.898H102.93L104.407 134.869V144H94.981V104.898ZM129.195 104.898H137.171V144H127.718V134.869L129.195 104.898ZM159.756 136.937V114.942H168.833V144H160.347L159.756 136.937ZM160.616 131.029L162.979 130.975C162.979 132.927 162.746 134.735 162.281 136.4C161.815 138.047 161.126 139.479 160.213 140.697C159.318 141.914 158.208 142.863 156.883 143.543C155.576 144.206 154.063 144.537 152.344 144.537C150.912 144.537 149.596 144.34 148.396 143.946C147.215 143.535 146.194 142.899 145.335 142.04C144.476 141.162 143.804 140.043 143.321 138.683C142.855 137.304 142.623 135.657 142.623 133.741V114.942H151.673V133.795C151.673 134.439 151.753 134.994 151.915 135.46C152.076 135.925 152.308 136.319 152.613 136.642C152.917 136.946 153.293 137.179 153.741 137.34C154.206 137.483 154.734 137.555 155.325 137.555C156.686 137.555 157.751 137.268 158.521 136.695C159.291 136.122 159.828 135.344 160.132 134.359C160.455 133.374 160.616 132.264 160.616 131.029ZM183.389 102.75V144H174.312V102.75H183.389ZM204.283 114.942V121.227H186.773V114.942H204.283ZM190.452 107.718H199.502V134.52C199.502 135.29 199.592 135.89 199.771 136.319C199.95 136.731 200.254 137.027 200.684 137.206C201.132 137.367 201.722 137.447 202.457 137.447C202.976 137.447 203.405 137.438 203.746 137.42C204.086 137.385 204.408 137.34 204.712 137.286V143.758C203.943 144.009 203.137 144.197 202.295 144.322C201.454 144.465 200.559 144.537 199.61 144.537C197.676 144.537 196.02 144.233 194.642 143.624C193.281 143.015 192.243 142.057 191.526 140.75C190.81 139.444 190.452 137.743 190.452 135.648V107.718ZM217.442 114.942V144H208.365V114.942H217.442ZM207.828 107.45C207.828 106.161 208.293 105.104 209.224 104.281C210.155 103.457 211.364 103.045 212.85 103.045C214.336 103.045 215.544 103.457 216.475 104.281C217.406 105.104 217.872 106.161 217.872 107.45C217.872 108.739 217.406 109.795 216.475 110.619C215.544 111.442 214.336 111.854 212.85 111.854C211.364 111.854 210.155 111.442 209.224 110.619C208.293 109.795 207.828 108.739 207.828 107.45ZM238.255 134.789L246.392 104.898H256.946L243.76 144H236.939L238.255 134.789ZM230.87 104.898L239.007 134.789L240.376 144H233.475L220.369 104.898H230.87ZM272.281 144.537C269.917 144.537 267.805 144.17 265.943 143.436C264.081 142.684 262.505 141.655 261.216 140.348C259.945 139.041 258.969 137.537 258.289 135.836C257.627 134.135 257.295 132.336 257.295 130.438V129.417C257.295 127.287 257.591 125.318 258.182 123.509C258.772 121.683 259.65 120.09 260.813 118.729C261.977 117.368 263.436 116.312 265.191 115.56C266.945 114.79 268.986 114.405 271.314 114.405C273.373 114.405 275.217 114.736 276.846 115.399C278.475 116.061 279.854 117.01 280.982 118.246C282.128 119.481 282.996 120.976 283.587 122.73C284.196 124.485 284.5 126.454 284.5 128.639V132.318H260.76V126.651H275.665V125.953C275.682 124.986 275.512 124.163 275.154 123.482C274.814 122.802 274.313 122.283 273.65 121.925C272.988 121.567 272.182 121.388 271.233 121.388C270.249 121.388 269.434 121.603 268.79 122.032C268.163 122.462 267.671 123.053 267.312 123.805C266.972 124.539 266.731 125.389 266.587 126.356C266.444 127.323 266.373 128.343 266.373 129.417V130.438C266.373 131.512 266.516 132.488 266.802 133.365C267.107 134.243 267.536 134.994 268.091 135.621C268.664 136.23 269.345 136.704 270.132 137.044C270.938 137.385 271.851 137.555 272.872 137.555C274.107 137.555 275.324 137.322 276.524 136.856C277.723 136.391 278.753 135.621 279.612 134.547L283.721 139.435C283.13 140.276 282.289 141.091 281.197 141.878C280.123 142.666 278.833 143.311 277.33 143.812C275.826 144.295 274.143 144.537 272.281 144.537ZM297.068 121.146V144H288.018V114.942H296.504L297.068 121.146ZM295.994 128.478L293.873 128.531C293.873 126.311 294.141 124.333 294.678 122.596C295.215 120.842 295.976 119.356 296.961 118.138C297.946 116.921 299.118 115.999 300.479 115.372C301.858 114.728 303.388 114.405 305.071 114.405C306.414 114.405 307.64 114.602 308.75 114.996C309.878 115.39 310.845 116.026 311.651 116.903C312.474 117.78 313.101 118.944 313.531 120.394C313.978 121.826 314.202 123.599 314.202 125.711V144H305.098V125.685C305.098 124.521 304.937 123.635 304.615 123.026C304.292 122.399 303.827 121.97 303.218 121.737C302.61 121.504 301.867 121.388 300.989 121.388C300.058 121.388 299.271 121.567 298.626 121.925C297.981 122.283 297.462 122.784 297.068 123.429C296.692 124.055 296.415 124.798 296.236 125.658C296.075 126.517 295.994 127.457 295.994 128.478ZM335.928 137.34V102.75H345.032V144H336.868L335.928 137.34ZM318.096 129.82V129.256C318.096 127.054 318.338 125.049 318.821 123.241C319.305 121.415 320.021 119.848 320.97 118.541C321.919 117.216 323.1 116.196 324.515 115.479C325.929 114.763 327.558 114.405 329.402 114.405C331.049 114.405 332.491 114.79 333.726 115.56C334.961 116.312 336.018 117.368 336.895 118.729C337.772 120.09 338.488 121.683 339.043 123.509C339.598 125.318 340.019 127.269 340.306 129.364V130.035C340.019 132.005 339.598 133.867 339.043 135.621C338.488 137.358 337.772 138.897 336.895 140.24C336.018 141.583 334.952 142.639 333.699 143.409C332.464 144.161 331.014 144.537 329.349 144.537C327.505 144.537 325.875 144.17 324.461 143.436C323.064 142.702 321.892 141.673 320.943 140.348C320.012 139.023 319.305 137.465 318.821 135.675C318.338 133.884 318.096 131.933 318.096 129.82ZM327.146 129.256V129.82C327.146 130.912 327.218 131.924 327.361 132.855C327.505 133.786 327.746 134.61 328.086 135.326C328.444 136.024 328.91 136.57 329.483 136.964C330.074 137.358 330.799 137.555 331.658 137.555C332.822 137.555 333.78 137.277 334.532 136.722C335.302 136.167 335.866 135.379 336.224 134.359C336.6 133.338 336.761 132.139 336.707 130.76V128.639C336.743 127.457 336.662 126.419 336.465 125.523C336.268 124.61 335.955 123.849 335.525 123.241C335.114 122.632 334.585 122.175 333.941 121.871C333.314 121.549 332.571 121.388 331.712 121.388C330.87 121.388 330.154 121.585 329.563 121.979C328.991 122.372 328.525 122.927 328.167 123.644C327.809 124.342 327.549 125.174 327.388 126.141C327.227 127.09 327.146 128.128 327.146 129.256ZM349.034 129.767V129.203C349.034 127.072 349.338 125.112 349.947 123.321C350.556 121.513 351.451 119.946 352.632 118.622C353.814 117.297 355.273 116.267 357.01 115.533C358.746 114.781 360.752 114.405 363.025 114.405C365.317 114.405 367.331 114.781 369.068 115.533C370.822 116.267 372.291 117.297 373.472 118.622C374.654 119.946 375.549 121.513 376.158 123.321C376.766 125.112 377.071 127.072 377.071 129.203V129.767C377.071 131.879 376.766 133.84 376.158 135.648C375.549 137.438 374.654 139.005 373.472 140.348C372.291 141.673 370.831 142.702 369.095 143.436C367.358 144.17 365.353 144.537 363.079 144.537C360.805 144.537 358.791 144.17 357.037 143.436C355.282 142.702 353.814 141.673 352.632 140.348C351.451 139.005 350.556 137.438 349.947 135.648C349.338 133.84 349.034 131.879 349.034 129.767ZM358.084 129.203V129.767C358.084 130.859 358.165 131.879 358.326 132.828C358.487 133.777 358.755 134.61 359.131 135.326C359.507 136.024 360.018 136.57 360.662 136.964C361.307 137.358 362.112 137.555 363.079 137.555C364.028 137.555 364.816 137.358 365.442 136.964C366.087 136.57 366.597 136.024 366.973 135.326C367.349 134.61 367.618 133.777 367.779 132.828C367.94 131.879 368.021 130.859 368.021 129.767V129.203C368.021 128.146 367.94 127.153 367.779 126.222C367.618 125.273 367.349 124.44 366.973 123.724C366.597 122.99 366.087 122.417 365.442 122.005C364.798 121.594 363.992 121.388 363.025 121.388C362.076 121.388 361.28 121.594 360.635 122.005C360.009 122.417 359.507 122.99 359.131 123.724C358.755 124.44 358.487 125.273 358.326 126.222C358.165 127.153 358.084 128.146 358.084 129.203ZM390.23 122.14V144H381.18V114.942H389.639L390.23 122.14ZM398.824 114.728L398.663 123.133C398.305 123.097 397.821 123.053 397.212 122.999C396.604 122.945 396.093 122.918 395.682 122.918C394.625 122.918 393.712 123.044 392.942 123.294C392.19 123.527 391.564 123.885 391.062 124.369C390.579 124.834 390.221 125.425 389.988 126.141C389.773 126.857 389.675 127.69 389.693 128.639L388.055 127.564C388.055 125.613 388.243 123.84 388.619 122.247C389.013 120.636 389.568 119.248 390.284 118.084C391 116.903 391.868 115.999 392.889 115.372C393.909 114.728 395.055 114.405 396.326 114.405C396.774 114.405 397.212 114.432 397.642 114.486C398.09 114.54 398.484 114.62 398.824 114.728Z" fill="black"/>
<path d="M104.339 59.3726L97.5713 80H92.1196L101.365 55.1172H104.834L104.339 59.3726ZM109.961 80L103.177 59.3726L102.63 55.1172H106.133L115.43 80H109.961ZM109.654 70.7373V74.7534H96.5117V70.7373H109.654ZM121.805 65.3369V80H116.866V61.5088H121.497L121.805 65.3369ZM121.121 70.105H119.754C119.754 68.8175 119.908 67.6326 120.215 66.5503C120.534 65.4565 120.996 64.5109 121.6 63.7134C122.215 62.9045 122.972 62.2778 123.873 61.8335C124.773 61.3892 125.815 61.167 127 61.167C127.82 61.167 128.572 61.2923 129.256 61.543C129.939 61.7822 130.526 62.1639 131.016 62.688C131.517 63.2007 131.905 63.8729 132.178 64.7046C132.452 65.5249 132.588 66.5104 132.588 67.6611V80H127.667V68.208C127.667 67.3649 127.553 66.7155 127.325 66.2598C127.097 65.804 126.772 65.485 126.351 65.3027C125.94 65.1204 125.445 65.0293 124.864 65.0293C124.226 65.0293 123.667 65.1603 123.189 65.4224C122.722 65.6844 122.334 66.049 122.027 66.5161C121.719 66.9718 121.491 67.5073 121.343 68.1226C121.195 68.7378 121.121 69.3986 121.121 70.105ZM132.127 69.541L130.367 69.7632C130.367 68.5555 130.515 67.4333 130.811 66.3965C131.119 65.3597 131.569 64.4482 132.161 63.6621C132.765 62.876 133.511 62.2664 134.4 61.8335C135.289 61.3892 136.314 61.167 137.476 61.167C138.365 61.167 139.174 61.298 139.903 61.5601C140.632 61.8107 141.253 62.2152 141.766 62.7734C142.29 63.3203 142.688 64.0381 142.962 64.9268C143.247 65.8154 143.389 66.9035 143.389 68.1909V80H138.45V68.1909C138.45 67.3364 138.336 66.687 138.108 66.2427C137.892 65.7869 137.573 65.4736 137.151 65.3027C136.741 65.1204 136.251 65.0293 135.682 65.0293C135.089 65.0293 134.571 65.1489 134.126 65.3882C133.682 65.616 133.312 65.9351 133.016 66.3452C132.719 66.7554 132.497 67.2339 132.349 67.7808C132.201 68.3162 132.127 68.903 132.127 69.541ZM152.396 61.5088V80H147.457V61.5088H152.396ZM147.149 56.6895C147.149 55.9717 147.4 55.3792 147.901 54.9121C148.402 54.445 149.074 54.2114 149.917 54.2114C150.749 54.2114 151.416 54.445 151.917 54.9121C152.43 55.3792 152.686 55.9717 152.686 56.6895C152.686 57.4072 152.43 57.9997 151.917 58.4668C151.416 58.9339 150.749 59.1675 149.917 59.1675C149.074 59.1675 148.402 58.9339 147.901 58.4668C147.4 57.9997 147.149 57.4072 147.149 56.6895ZM161.282 65.4565V80H156.36V61.5088H160.975L161.282 65.4565ZM160.564 70.105H159.231C159.231 68.7378 159.408 67.5073 159.761 66.4136C160.114 65.3084 160.61 64.3685 161.248 63.5938C161.886 62.8076 162.644 62.2095 163.521 61.7993C164.41 61.3778 165.401 61.167 166.495 61.167C167.361 61.167 168.152 61.2923 168.87 61.543C169.588 61.7936 170.203 62.1924 170.716 62.7393C171.24 63.2861 171.639 64.0096 171.912 64.9097C172.197 65.8097 172.339 66.9092 172.339 68.208V80H167.383V68.1909C167.383 67.3706 167.269 66.7326 167.042 66.2769C166.814 65.8211 166.478 65.5021 166.033 65.3198C165.6 65.1261 165.065 65.0293 164.427 65.0293C163.766 65.0293 163.191 65.1603 162.701 65.4224C162.222 65.6844 161.823 66.049 161.504 66.5161C161.197 66.9718 160.963 67.5073 160.804 68.1226C160.644 68.7378 160.564 69.3986 160.564 70.105ZM195.223 59.3726L188.455 80H183.003L192.249 55.1172H195.718L195.223 59.3726ZM200.845 80L194.061 59.3726L193.514 55.1172H197.017L206.314 80H200.845ZM200.538 70.7373V74.7534H187.396V70.7373H200.538ZM208.313 53.75H213.235V75.7617L212.74 80H208.313V53.75ZM224.942 70.5664V70.9253C224.942 72.3039 224.794 73.5685 224.498 74.7192C224.213 75.87 223.768 76.8669 223.165 77.71C222.561 78.5417 221.809 79.1911 220.909 79.6582C220.02 80.1139 218.972 80.3418 217.764 80.3418C216.636 80.3418 215.656 80.1139 214.825 79.6582C214.004 79.2025 213.315 78.5588 212.757 77.7271C212.199 76.8953 211.749 75.9212 211.407 74.8047C211.065 73.6882 210.809 72.4691 210.638 71.1475V70.3613C210.809 69.0397 211.065 67.8206 211.407 66.7041C211.749 65.5876 212.199 64.6134 212.757 63.7817C213.315 62.95 214.004 62.3063 214.825 61.8506C215.645 61.3949 216.613 61.167 217.73 61.167C218.949 61.167 220.009 61.4006 220.909 61.8677C221.82 62.3234 222.572 62.9728 223.165 63.8159C223.768 64.6476 224.213 65.6388 224.498 66.7896C224.794 67.9289 224.942 69.1878 224.942 70.5664ZM220.02 70.9253V70.5664C220.02 69.8145 219.963 69.1081 219.849 68.4473C219.747 67.7751 219.564 67.1883 219.302 66.687C219.04 66.1743 218.681 65.7699 218.226 65.4736C217.781 65.1774 217.206 65.0293 216.5 65.0293C215.827 65.0293 215.258 65.1432 214.791 65.3711C214.323 65.599 213.936 65.918 213.628 66.3281C213.332 66.7383 213.11 67.2282 212.962 67.7979C212.814 68.3561 212.723 68.9714 212.688 69.6436V71.8823C212.723 72.7824 212.871 73.5799 213.133 74.2749C213.406 74.9585 213.816 75.4997 214.363 75.8984C214.922 76.2858 215.645 76.4795 216.534 76.4795C217.229 76.4795 217.804 76.3428 218.26 76.0693C218.715 75.7959 219.069 75.4085 219.319 74.9072C219.581 74.4059 219.764 73.8192 219.866 73.147C219.969 72.4634 220.02 71.7228 220.02 70.9253ZM238.921 75.9668V53.75H243.877V80H239.417L238.921 75.9668ZM227.232 70.9766V70.6177C227.232 69.2049 227.391 67.9232 227.71 66.7725C228.029 65.6104 228.497 64.6134 229.112 63.7817C229.727 62.95 230.485 62.3063 231.385 61.8506C232.285 61.3949 233.31 61.167 234.461 61.167C235.543 61.167 236.489 61.3949 237.298 61.8506C238.118 62.3063 238.813 62.9557 239.383 63.7988C239.964 64.6305 240.431 65.616 240.784 66.7554C241.137 67.8833 241.394 69.1195 241.553 70.4639V71.25C241.394 72.5374 241.137 73.7337 240.784 74.8389C240.431 75.944 239.964 76.9124 239.383 77.7441C238.813 78.5645 238.118 79.2025 237.298 79.6582C236.478 80.1139 235.521 80.3418 234.427 80.3418C233.276 80.3418 232.251 80.1082 231.351 79.6411C230.462 79.174 229.71 78.5189 229.095 77.6758C228.491 76.8327 228.029 75.8415 227.71 74.7021C227.391 73.5628 227.232 72.321 227.232 70.9766ZM232.154 70.6177V70.9766C232.154 71.7399 232.211 72.452 232.325 73.1128C232.45 73.7736 232.649 74.3604 232.923 74.873C233.208 75.3743 233.572 75.7674 234.017 76.0522C234.472 76.3257 235.025 76.4624 235.674 76.4624C236.517 76.4624 237.212 76.2744 237.759 75.8984C238.306 75.5111 238.722 74.9813 239.007 74.3091C239.303 73.6369 239.474 72.8621 239.52 71.9849V69.7461C239.485 69.0283 239.383 68.3846 239.212 67.8149C239.052 67.2339 238.813 66.7383 238.494 66.3281C238.187 65.918 237.799 65.599 237.332 65.3711C236.876 65.1432 236.335 65.0293 235.708 65.0293C235.07 65.0293 234.524 65.1774 234.068 65.4736C233.612 65.7585 233.242 66.1515 232.957 66.6528C232.684 67.1541 232.479 67.7466 232.342 68.4302C232.216 69.1024 232.154 69.8315 232.154 70.6177ZM258.66 75.5737V61.5088H263.582V80H258.951L258.66 75.5737ZM259.207 71.7798L260.66 71.7456C260.66 72.9761 260.517 74.1211 260.232 75.1807C259.948 76.2288 259.52 77.1403 258.951 77.915C258.381 78.6784 257.663 79.2765 256.797 79.7095C255.931 80.131 254.912 80.3418 253.738 80.3418C252.838 80.3418 252.007 80.2165 251.243 79.9658C250.491 79.7038 249.842 79.2993 249.295 78.7524C248.759 78.1942 248.338 77.4821 248.03 76.6162C247.734 75.7389 247.586 74.6851 247.586 73.4546V61.5088H252.508V73.4888C252.508 74.0356 252.57 74.4971 252.696 74.873C252.833 75.249 253.021 75.5566 253.26 75.7959C253.499 76.0352 253.778 76.2061 254.097 76.3086C254.428 76.4111 254.792 76.4624 255.191 76.4624C256.205 76.4624 257.002 76.2573 257.583 75.8472C258.176 75.437 258.592 74.8787 258.831 74.1724C259.082 73.4546 259.207 72.6571 259.207 71.7798ZM272.537 53.75V80H267.598V53.75H272.537ZM281.526 53.7329V80H276.604V53.7329H281.526ZM293.182 61.5088L285.149 70.6689L280.843 75.0269L279.048 71.4722L282.466 67.1313L287.269 61.5088H293.182ZM288.072 80L282.603 71.4551L286.004 68.4814L293.746 80H288.072ZM300.103 53.75V80H295.181V53.75H300.103ZM299.402 70.105H298.052C298.064 68.8175 298.235 67.6326 298.565 66.5503C298.895 65.4565 299.368 64.5109 299.983 63.7134C300.599 62.9045 301.333 62.2778 302.188 61.8335C303.054 61.3892 304.011 61.167 305.059 61.167C305.971 61.167 306.797 61.298 307.537 61.5601C308.289 61.8107 308.933 62.2209 309.468 62.7905C310.015 63.3488 310.437 64.0837 310.733 64.9951C311.029 65.9066 311.177 67.0117 311.177 68.3105V80H306.221V68.2764C306.221 67.4561 306.102 66.8123 305.862 66.3452C305.634 65.8667 305.298 65.5306 304.854 65.3369C304.421 65.1318 303.886 65.0293 303.248 65.0293C302.541 65.0293 301.937 65.1603 301.436 65.4224C300.946 65.6844 300.553 66.049 300.257 66.5161C299.961 66.9718 299.744 67.5073 299.607 68.1226C299.471 68.7378 299.402 69.3986 299.402 70.105ZM324.9 75.8301V67.5928C324.9 67.0003 324.804 66.4933 324.61 66.0718C324.416 65.6388 324.114 65.3027 323.704 65.0635C323.305 64.8242 322.787 64.7046 322.149 64.7046C321.602 64.7046 321.129 64.8014 320.73 64.9951C320.332 65.1774 320.024 65.4451 319.808 65.7983C319.591 66.1401 319.483 66.5446 319.483 67.0117H314.561C314.561 66.2256 314.743 65.4793 315.108 64.7729C315.472 64.0666 316.002 63.4456 316.697 62.9102C317.392 62.3633 318.218 61.936 319.175 61.6284C320.144 61.3208 321.226 61.167 322.422 61.167C323.858 61.167 325.134 61.4062 326.25 61.8848C327.367 62.3633 328.244 63.0811 328.882 64.0381C329.532 64.9951 329.856 66.1914 329.856 67.627V75.5396C329.856 76.5535 329.919 77.3853 330.044 78.0347C330.17 78.6727 330.352 79.231 330.591 79.7095V80H325.618C325.379 79.4987 325.197 78.8721 325.071 78.1201C324.957 77.3568 324.9 76.5934 324.9 75.8301ZM325.55 68.7378L325.584 71.5234H322.833C322.183 71.5234 321.619 71.5975 321.141 71.7456C320.662 71.8937 320.269 72.1045 319.961 72.3779C319.654 72.64 319.426 72.9476 319.278 73.3008C319.141 73.654 319.073 74.0413 319.073 74.4629C319.073 74.8844 319.17 75.2661 319.363 75.6079C319.557 75.9383 319.836 76.2004 320.201 76.394C320.565 76.5763 320.993 76.6675 321.482 76.6675C322.223 76.6675 322.867 76.5194 323.414 76.2231C323.96 75.9269 324.382 75.5623 324.678 75.1294C324.986 74.6965 325.145 74.2863 325.157 73.8989L326.456 75.9839C326.273 76.451 326.023 76.9352 325.704 77.4365C325.396 77.9378 325.003 78.4106 324.524 78.855C324.046 79.2879 323.471 79.6468 322.798 79.9316C322.126 80.2051 321.329 80.3418 320.406 80.3418C319.232 80.3418 318.167 80.1082 317.21 79.6411C316.264 79.1626 315.512 78.5075 314.954 77.6758C314.407 76.8327 314.134 75.8757 314.134 74.8047C314.134 73.8363 314.316 72.9761 314.681 72.2241C315.045 71.4722 315.581 70.8398 316.287 70.3271C317.005 69.8031 317.899 69.41 318.97 69.1479C320.041 68.8745 321.283 68.7378 322.696 68.7378H325.55ZM338.846 53.75V80H333.907V53.75H338.846ZM351.424 80.3418C349.988 80.3418 348.701 80.1139 347.562 79.6582C346.422 79.1911 345.454 78.5474 344.656 77.7271C343.87 76.9067 343.266 75.9554 342.845 74.873C342.423 73.7793 342.212 72.6172 342.212 71.3867V70.7031C342.212 69.3018 342.412 68.02 342.811 66.8579C343.209 65.6958 343.779 64.6875 344.52 63.833C345.271 62.9785 346.183 62.3234 347.254 61.8677C348.325 61.4006 349.533 61.167 350.877 61.167C352.187 61.167 353.349 61.3835 354.363 61.8164C355.377 62.2493 356.226 62.8646 356.91 63.6621C357.605 64.4596 358.129 65.4167 358.482 66.5332C358.835 67.6383 359.012 68.8688 359.012 70.2246V72.2754H344.314V68.9941H354.175V68.6182C354.175 67.9346 354.05 67.325 353.799 66.7896C353.56 66.2427 353.195 65.8097 352.706 65.4907C352.216 65.1717 351.589 65.0122 350.826 65.0122C350.176 65.0122 349.618 65.1546 349.151 65.4395C348.684 65.7243 348.302 66.123 348.006 66.6357C347.721 67.1484 347.505 67.7523 347.356 68.4473C347.22 69.1309 347.151 69.8828 347.151 70.7031V71.3867C347.151 72.1273 347.254 72.8109 347.459 73.4375C347.675 74.0641 347.977 74.6053 348.365 75.061C348.764 75.5168 349.242 75.87 349.8 76.1206C350.37 76.3713 351.014 76.4966 351.731 76.4966C352.62 76.4966 353.446 76.3257 354.209 75.9839C354.984 75.6307 355.651 75.1009 356.209 74.3945L358.602 76.9922C358.214 77.5505 357.684 78.0859 357.012 78.5986C356.351 79.1113 355.554 79.5329 354.62 79.8633C353.685 80.1823 352.62 80.3418 351.424 80.3418ZM366.736 53.7329V80H361.814V53.7329H366.736ZM378.392 61.5088L370.359 70.6689L366.053 75.0269L364.258 71.4722L367.676 67.1313L372.479 61.5088H378.392ZM373.282 80L367.813 71.4551L371.214 68.4814L378.956 80H373.282Z" fill="#888888"/>
<rect x="92" y="181" width="1179" height="80" rx="13.3333" fill="#CCCCCC"/>
<rect x="107" y="196.333" width="208" height="49.3333" rx="4.66667" fill="#888888" stroke="#888888" stroke-width="4"/>
<path d="M180.729 216.354L177.031 228.333H173.104L178.677 213.167H181.167L180.729 216.354ZM183.792 228.333L180.083 216.354L179.604 213.167H182.125L187.729 228.333H183.792ZM183.646 222.677V225.5H175.865V222.677H183.646ZM191.625 219.469V228.333H188.115V217.062H191.406L191.625 219.469ZM191.208 222.312L190.385 222.333C190.385 221.472 190.49 220.705 190.698 220.031C190.906 219.351 191.201 218.774 191.583 218.302C191.965 217.83 192.42 217.472 192.948 217.229C193.483 216.979 194.076 216.854 194.729 216.854C195.25 216.854 195.726 216.931 196.156 217.083C196.594 217.236 196.969 217.483 197.281 217.823C197.601 218.163 197.844 218.615 198.01 219.177C198.184 219.733 198.271 220.42 198.271 221.24V228.333H194.74V221.229C194.74 220.778 194.677 220.434 194.552 220.198C194.427 219.955 194.247 219.788 194.01 219.698C193.774 219.608 193.486 219.562 193.146 219.562C192.785 219.562 192.479 219.632 192.229 219.771C191.979 219.91 191.778 220.104 191.625 220.354C191.479 220.597 191.372 220.885 191.302 221.219C191.24 221.552 191.208 221.917 191.208 222.312ZM207.302 217.062H210.49V227.896C210.49 228.937 210.25 229.819 209.771 230.542C209.292 231.271 208.622 231.823 207.76 232.198C206.906 232.58 205.906 232.771 204.76 232.771C204.253 232.771 203.736 232.705 203.208 232.573C202.681 232.448 202.187 232.26 201.729 232.01C201.271 231.76 200.885 231.451 200.573 231.083L202.042 229.021C202.326 229.34 202.684 229.611 203.115 229.833C203.545 230.062 204.052 230.177 204.635 230.177C205.142 230.177 205.566 230.087 205.906 229.906C206.253 229.726 206.517 229.462 206.698 229.115C206.878 228.774 206.969 228.361 206.969 227.875V219.729L207.302 217.062ZM199.812 222.833V222.615C199.812 221.76 199.917 220.983 200.125 220.281C200.34 219.573 200.646 218.965 201.042 218.458C201.444 217.944 201.931 217.549 202.5 217.271C203.069 216.993 203.712 216.854 204.427 216.854C205.198 216.854 205.83 217.003 206.323 217.302C206.823 217.594 207.222 218.003 207.521 218.531C207.826 219.059 208.062 219.677 208.229 220.385C208.403 221.087 208.549 221.844 208.667 222.656V222.917C208.549 223.681 208.385 224.403 208.177 225.083C207.976 225.757 207.712 226.354 207.385 226.875C207.059 227.396 206.649 227.806 206.156 228.104C205.67 228.396 205.087 228.542 204.406 228.542C203.698 228.542 203.059 228.399 202.49 228.115C201.927 227.83 201.444 227.431 201.042 226.917C200.646 226.403 200.34 225.799 200.125 225.104C199.917 224.41 199.812 223.653 199.812 222.833ZM203.323 222.615V222.833C203.323 223.257 203.361 223.649 203.437 224.01C203.521 224.372 203.646 224.691 203.812 224.969C203.979 225.24 204.184 225.451 204.427 225.604C204.677 225.757 204.969 225.833 205.302 225.833C205.809 225.833 206.219 225.726 206.531 225.51C206.844 225.295 207.069 224.99 207.208 224.594C207.347 224.198 207.406 223.733 207.385 223.198V222.375C207.399 221.917 207.368 221.514 207.292 221.167C207.215 220.812 207.094 220.517 206.927 220.281C206.767 220.045 206.552 219.868 206.281 219.75C206.017 219.625 205.698 219.562 205.323 219.562C204.997 219.562 204.708 219.639 204.458 219.792C204.208 219.944 204 220.16 203.833 220.437C203.667 220.708 203.538 221.031 203.448 221.406C203.365 221.774 203.323 222.177 203.323 222.615ZM219.094 225.594V217.062H222.615V228.333H219.323L219.094 225.594ZM219.427 223.302L220.344 223.281C220.344 224.038 220.253 224.74 220.073 225.385C219.892 226.024 219.625 226.58 219.271 227.052C218.924 227.524 218.493 227.892 217.979 228.156C217.472 228.413 216.885 228.542 216.219 228.542C215.663 228.542 215.153 228.465 214.687 228.312C214.229 228.153 213.833 227.906 213.5 227.573C213.167 227.233 212.906 226.799 212.719 226.271C212.538 225.736 212.448 225.097 212.448 224.354V217.062H215.958V224.375C215.958 224.625 215.99 224.84 216.052 225.021C216.115 225.201 216.205 225.354 216.323 225.479C216.441 225.597 216.587 225.687 216.76 225.75C216.941 225.806 217.146 225.833 217.375 225.833C217.903 225.833 218.316 225.722 218.615 225.5C218.913 225.278 219.122 224.976 219.24 224.594C219.365 224.212 219.427 223.781 219.427 223.302ZM228.26 212.333V228.333H224.74V212.333H228.26ZM236.281 225.5V220.854C236.281 220.535 236.236 220.26 236.146 220.031C236.056 219.802 235.913 219.625 235.719 219.5C235.524 219.368 235.264 219.302 234.938 219.302C234.674 219.302 234.448 219.347 234.26 219.437C234.073 219.528 233.931 219.663 233.833 219.844C233.736 220.024 233.688 220.253 233.688 220.531H230.177C230.177 220.01 230.292 219.528 230.521 219.083C230.757 218.632 231.09 218.24 231.521 217.906C231.958 217.573 232.479 217.316 233.083 217.135C233.694 216.948 234.375 216.854 235.125 216.854C236.021 216.854 236.819 217.003 237.521 217.302C238.229 217.601 238.788 218.049 239.198 218.646C239.608 219.236 239.813 219.979 239.813 220.875V225.49C239.813 226.226 239.854 226.785 239.938 227.167C240.021 227.542 240.139 227.872 240.292 228.156V228.333H236.771C236.604 227.986 236.479 227.562 236.396 227.062C236.319 226.556 236.281 226.035 236.281 225.5ZM236.708 221.448L236.729 223.323H235.177C234.851 223.323 234.573 223.368 234.344 223.458C234.122 223.549 233.941 223.674 233.802 223.833C233.67 223.986 233.573 224.16 233.51 224.354C233.455 224.549 233.427 224.753 233.427 224.969C233.427 225.177 233.476 225.365 233.573 225.531C233.677 225.691 233.816 225.816 233.99 225.906C234.163 225.997 234.358 226.042 234.573 226.042C234.962 226.042 235.292 225.969 235.563 225.823C235.84 225.67 236.052 225.486 236.198 225.271C236.344 225.056 236.417 224.854 236.417 224.667L237.188 226.104C237.049 226.382 236.889 226.663 236.708 226.948C236.535 227.233 236.316 227.497 236.052 227.74C235.795 227.976 235.479 228.17 235.104 228.323C234.729 228.469 234.274 228.542 233.74 228.542C233.045 228.542 232.406 228.399 231.823 228.115C231.247 227.83 230.785 227.434 230.438 226.927C230.09 226.413 229.917 225.823 229.917 225.156C229.917 224.573 230.021 224.052 230.229 223.594C230.444 223.135 230.767 222.747 231.198 222.427C231.628 222.108 232.177 221.865 232.844 221.698C233.51 221.531 234.295 221.448 235.198 221.448H236.708ZM245.302 219.854V228.333H241.792V217.062H245.073L245.302 219.854ZM248.635 216.979L248.573 220.24C248.434 220.226 248.247 220.208 248.01 220.187C247.774 220.167 247.576 220.156 247.417 220.156C247.007 220.156 246.653 220.205 246.354 220.302C246.062 220.392 245.819 220.531 245.625 220.719C245.437 220.899 245.299 221.128 245.208 221.406C245.125 221.684 245.087 222.007 245.094 222.375L244.458 221.958C244.458 221.201 244.531 220.514 244.677 219.896C244.83 219.271 245.045 218.733 245.323 218.281C245.601 217.823 245.937 217.472 246.333 217.229C246.729 216.979 247.174 216.854 247.667 216.854C247.84 216.854 248.01 216.865 248.177 216.885C248.351 216.906 248.503 216.937 248.635 216.979Z" fill="white"/>
<rect x="339" y="196.333" width="208" height="49.3333" rx="4.66667" fill="#888888" stroke="#888888" stroke-width="4"/>
<path d="M419.073 225.521V228.333H411.406V225.521H419.073ZM412.708 213.167V228.333H409.052V213.167H412.708ZM426.302 225.5V220.854C426.302 220.535 426.257 220.26 426.167 220.031C426.076 219.802 425.934 219.625 425.74 219.5C425.545 219.368 425.285 219.302 424.958 219.302C424.694 219.302 424.469 219.347 424.281 219.437C424.094 219.528 423.951 219.663 423.854 219.844C423.757 220.024 423.708 220.253 423.708 220.531H420.198C420.198 220.01 420.312 219.528 420.542 219.083C420.778 218.632 421.111 218.24 421.542 217.906C421.979 217.573 422.5 217.316 423.104 217.135C423.715 216.948 424.396 216.854 425.146 216.854C426.042 216.854 426.84 217.003 427.542 217.302C428.25 217.601 428.809 218.049 429.219 218.646C429.628 219.236 429.833 219.979 429.833 220.875V225.49C429.833 226.226 429.875 226.785 429.958 227.167C430.042 227.542 430.16 227.872 430.312 228.156V228.333H426.792C426.625 227.986 426.5 227.562 426.417 227.062C426.34 226.556 426.302 226.035 426.302 225.5ZM426.729 221.448L426.75 223.323H425.198C424.872 223.323 424.594 223.368 424.365 223.458C424.142 223.549 423.962 223.674 423.823 223.833C423.691 223.986 423.594 224.16 423.531 224.354C423.476 224.549 423.448 224.753 423.448 224.969C423.448 225.177 423.497 225.365 423.594 225.531C423.698 225.691 423.837 225.816 424.01 225.906C424.184 225.997 424.378 226.042 424.594 226.042C424.983 226.042 425.312 225.969 425.583 225.823C425.861 225.67 426.073 225.486 426.219 225.271C426.365 225.056 426.437 224.854 426.437 224.667L427.208 226.104C427.069 226.382 426.91 226.663 426.729 226.948C426.556 227.233 426.337 227.497 426.073 227.74C425.816 227.976 425.5 228.17 425.125 228.323C424.75 228.469 424.295 228.542 423.76 228.542C423.066 228.542 422.427 228.399 421.844 228.115C421.267 227.83 420.806 227.434 420.458 226.927C420.111 226.413 419.937 225.823 419.937 225.156C419.937 224.573 420.042 224.052 420.25 223.594C420.465 223.135 420.788 222.747 421.219 222.427C421.649 222.108 422.198 221.865 422.865 221.698C423.531 221.531 424.316 221.448 425.219 221.448H426.729ZM435.323 219.854V228.333H431.812V217.062H435.094L435.323 219.854ZM438.656 216.979L438.594 220.24C438.455 220.226 438.267 220.208 438.031 220.187C437.795 220.167 437.597 220.156 437.437 220.156C437.028 220.156 436.674 220.205 436.375 220.302C436.083 220.392 435.84 220.531 435.646 220.719C435.458 220.899 435.319 221.128 435.229 221.406C435.146 221.684 435.108 222.007 435.115 222.375L434.479 221.958C434.479 221.201 434.552 220.514 434.698 219.896C434.851 219.271 435.066 218.733 435.344 218.281C435.622 217.823 435.958 217.472 436.354 217.229C436.75 216.979 437.194 216.854 437.687 216.854C437.861 216.854 438.031 216.865 438.198 216.885C438.372 216.906 438.524 216.937 438.656 216.979ZM445.406 225.5V220.854C445.406 220.535 445.361 220.26 445.271 220.031C445.181 219.802 445.038 219.625 444.844 219.5C444.649 219.368 444.389 219.302 444.063 219.302C443.799 219.302 443.573 219.347 443.385 219.437C443.198 219.528 443.056 219.663 442.958 219.844C442.861 220.024 442.813 220.253 442.813 220.531H439.302C439.302 220.01 439.417 219.528 439.646 219.083C439.882 218.632 440.215 218.24 440.646 217.906C441.083 217.573 441.604 217.316 442.208 217.135C442.819 216.948 443.5 216.854 444.25 216.854C445.146 216.854 445.944 217.003 446.646 217.302C447.354 217.601 447.913 218.049 448.323 218.646C448.733 219.236 448.938 219.979 448.938 220.875V225.49C448.938 226.226 448.979 226.785 449.063 227.167C449.146 227.542 449.264 227.872 449.417 228.156V228.333H445.896C445.729 227.986 445.604 227.562 445.521 227.062C445.444 226.556 445.406 226.035 445.406 225.5ZM445.833 221.448L445.854 223.323H444.302C443.976 223.323 443.698 223.368 443.469 223.458C443.247 223.549 443.066 223.674 442.927 223.833C442.795 223.986 442.698 224.16 442.635 224.354C442.58 224.549 442.552 224.753 442.552 224.969C442.552 225.177 442.601 225.365 442.698 225.531C442.802 225.691 442.941 225.816 443.115 225.906C443.288 225.997 443.483 226.042 443.698 226.042C444.087 226.042 444.417 225.969 444.688 225.823C444.965 225.67 445.177 225.486 445.323 225.271C445.469 225.056 445.542 224.854 445.542 224.667L446.313 226.104C446.174 226.382 446.014 226.663 445.833 226.948C445.66 227.233 445.441 227.497 445.177 227.74C444.92 227.976 444.604 228.17 444.229 228.323C443.854 228.469 443.399 228.542 442.865 228.542C442.17 228.542 441.531 228.399 440.948 228.115C440.372 227.83 439.91 227.434 439.563 226.927C439.215 226.413 439.042 225.823 439.042 225.156C439.042 224.573 439.146 224.052 439.354 223.594C439.569 223.135 439.892 222.747 440.323 222.427C440.753 222.108 441.302 221.865 441.969 221.698C442.635 221.531 443.42 221.448 444.323 221.448H445.833ZM454.781 225.927L457 217.062H460.698L457.01 228.333H454.823L454.781 225.927ZM453.469 217.062L455.656 225.927L455.635 228.333H453.437L449.76 217.062H453.469ZM467.052 228.542C466.135 228.542 465.316 228.399 464.594 228.115C463.872 227.823 463.26 227.424 462.76 226.917C462.267 226.41 461.889 225.826 461.625 225.167C461.368 224.507 461.24 223.809 461.24 223.073V222.677C461.24 221.851 461.354 221.087 461.583 220.385C461.812 219.677 462.153 219.059 462.604 218.531C463.056 218.003 463.622 217.594 464.302 217.302C464.983 217.003 465.774 216.854 466.677 216.854C467.476 216.854 468.191 216.983 468.823 217.24C469.455 217.497 469.99 217.865 470.427 218.344C470.872 218.823 471.208 219.403 471.437 220.083C471.674 220.764 471.792 221.528 471.792 222.375V223.802H462.583V221.604H468.365V221.333C468.372 220.958 468.306 220.639 468.167 220.375C468.035 220.111 467.84 219.91 467.583 219.771C467.326 219.632 467.014 219.562 466.646 219.562C466.264 219.562 465.948 219.646 465.698 219.812C465.455 219.979 465.264 220.208 465.125 220.5C464.993 220.785 464.899 221.115 464.844 221.49C464.788 221.865 464.76 222.26 464.76 222.677V223.073C464.76 223.49 464.816 223.868 464.927 224.208C465.045 224.549 465.212 224.84 465.427 225.083C465.649 225.319 465.913 225.503 466.219 225.635C466.531 225.767 466.885 225.833 467.281 225.833C467.76 225.833 468.233 225.743 468.698 225.562C469.163 225.382 469.562 225.083 469.896 224.667L471.49 226.562C471.26 226.889 470.934 227.205 470.51 227.51C470.094 227.816 469.594 228.066 469.01 228.26C468.427 228.448 467.774 228.542 467.052 228.542ZM476.927 212.333V228.333H473.406V212.333H476.927Z" fill="white"/>
<rect x="571" y="196.333" width="208" height="49.3333" rx="4.66667" fill="#888888" stroke="#888888" stroke-width="4"/>
<path d="M643.26 213.167H646.24L649.625 223.719L653.01 213.167H655.99L650.833 228.333H648.417L643.26 213.167ZM641.448 213.167H644.531L645.104 224.792V228.333H641.448V213.167ZM654.719 213.167H657.812V228.333H654.146V224.792L654.719 213.167ZM663.448 227.01L666.365 217.062H670.135L665.604 230.01C665.507 230.295 665.378 230.601 665.219 230.927C665.059 231.26 664.84 231.576 664.563 231.875C664.285 232.174 663.927 232.417 663.49 232.604C663.059 232.792 662.524 232.885 661.885 232.885C661.545 232.885 661.295 232.868 661.135 232.833C660.983 232.806 660.747 232.753 660.427 232.677V230.167C660.517 230.167 660.594 230.167 660.656 230.167C660.726 230.167 660.802 230.167 660.885 230.167C661.26 230.167 661.559 230.128 661.781 230.052C662.01 229.976 662.184 229.865 662.302 229.719C662.427 229.573 662.524 229.396 662.594 229.187L663.448 227.01ZM662.708 217.062L664.927 224.948L665.313 228.667H662.958L658.948 217.062H662.708ZM679.031 224.302C679.031 224.066 678.997 223.854 678.927 223.667C678.858 223.472 678.729 223.292 678.542 223.125C678.354 222.958 678.083 222.792 677.729 222.625C677.382 222.451 676.924 222.271 676.354 222.083C675.688 221.861 675.045 221.611 674.427 221.333C673.809 221.049 673.257 220.719 672.771 220.344C672.285 219.962 671.899 219.517 671.615 219.01C671.33 218.497 671.188 217.899 671.188 217.219C671.188 216.566 671.333 215.979 671.625 215.458C671.917 214.931 672.323 214.483 672.844 214.115C673.372 213.74 673.99 213.455 674.698 213.26C675.406 213.059 676.181 212.958 677.021 212.958C678.132 212.958 679.111 213.153 679.958 213.542C680.813 213.924 681.479 214.469 681.958 215.177C682.444 215.878 682.688 216.708 682.688 217.667H679.052C679.052 217.285 678.972 216.948 678.813 216.656C678.66 216.365 678.427 216.135 678.115 215.969C677.802 215.802 677.41 215.719 676.938 215.719C676.479 215.719 676.094 215.788 675.781 215.927C675.469 216.066 675.233 216.253 675.073 216.49C674.913 216.719 674.833 216.972 674.833 217.25C674.833 217.479 674.896 217.687 675.021 217.875C675.153 218.056 675.337 218.226 675.573 218.385C675.816 218.545 676.108 218.698 676.448 218.844C676.795 218.99 677.184 219.132 677.615 219.271C678.42 219.528 679.135 219.816 679.76 220.135C680.392 220.448 680.924 220.806 681.354 221.208C681.792 221.604 682.122 222.056 682.344 222.562C682.573 223.069 682.688 223.642 682.688 224.281C682.688 224.962 682.556 225.566 682.292 226.094C682.028 226.622 681.649 227.069 681.156 227.437C680.663 227.799 680.073 228.073 679.385 228.26C678.698 228.448 677.931 228.542 677.083 228.542C676.306 228.542 675.538 228.444 674.781 228.25C674.031 228.049 673.351 227.743 672.74 227.333C672.128 226.917 671.639 226.385 671.271 225.74C670.91 225.087 670.729 224.312 670.729 223.417H674.396C674.396 223.861 674.455 224.236 674.573 224.542C674.691 224.847 674.865 225.094 675.094 225.281C675.323 225.462 675.604 225.594 675.938 225.677C676.271 225.753 676.653 225.792 677.083 225.792C677.549 225.792 677.924 225.726 678.208 225.594C678.493 225.455 678.701 225.274 678.833 225.052C678.965 224.823 679.031 224.573 679.031 224.302ZM693.031 225.833L697.26 229.187L694.99 231.104L690.833 227.75L693.031 225.833ZM697.437 220.448V221.062C697.437 222.222 697.274 223.264 696.948 224.187C696.628 225.104 696.17 225.889 695.573 226.542C694.983 227.187 694.285 227.684 693.479 228.031C692.674 228.372 691.785 228.542 690.812 228.542C689.833 228.542 688.937 228.372 688.125 228.031C687.319 227.684 686.618 227.187 686.021 226.542C685.431 225.889 684.972 225.104 684.646 224.187C684.326 223.264 684.167 222.222 684.167 221.062V220.448C684.167 219.288 684.326 218.247 684.646 217.323C684.972 216.399 685.427 215.615 686.01 214.969C686.601 214.316 687.299 213.819 688.104 213.479C688.917 213.132 689.812 212.958 690.792 212.958C691.764 212.958 692.653 213.132 693.458 213.479C694.271 213.819 694.972 214.316 695.562 214.969C696.16 215.615 696.622 216.399 696.948 217.323C697.274 218.247 697.437 219.288 697.437 220.448ZM693.719 221.062V220.427C693.719 219.677 693.653 219.017 693.521 218.448C693.396 217.872 693.208 217.389 692.958 217C692.708 216.611 692.399 216.319 692.031 216.125C691.67 215.924 691.257 215.823 690.792 215.823C690.306 215.823 689.882 215.924 689.521 216.125C689.16 216.319 688.858 216.611 688.615 217C688.372 217.389 688.187 217.872 688.062 218.448C687.944 219.017 687.885 219.677 687.885 220.427V221.062C687.885 221.806 687.944 222.465 688.062 223.042C688.187 223.611 688.372 224.094 688.615 224.49C688.865 224.885 689.17 225.184 689.531 225.385C689.899 225.587 690.326 225.687 690.812 225.687C691.278 225.687 691.691 225.587 692.052 225.385C692.413 225.184 692.715 224.885 692.958 224.49C693.208 224.094 693.396 223.611 693.521 223.042C693.653 222.465 693.719 221.806 693.719 221.062ZM709.323 225.521V228.333H701.656V225.521H709.323ZM702.958 213.167V228.333H699.302V213.167H702.958Z" fill="white"/>
</svg>
