<svg width="1363" height="167" viewBox="0 0 1363 167" fill="none" xmlns="http://www.w3.org/2000/svg">
<rect width="1363" height="167" rx="15" fill="#F0F0F0"/>
<path d="M0 15C0 6.71573 6.71573 0 15 0H37V167H15C6.71573 167 0 160.284 0 152V15Z" fill="#424241"/>
<path d="M95.1289 40.9375H98.1055L102.488 53.4648L106.871 40.9375H109.848L103.684 58H101.293L95.1289 40.9375ZM93.5234 40.9375H96.4883L97.0273 53.1484V58H93.5234V40.9375ZM108.488 40.9375H111.465V58H107.949V53.1484L108.488 40.9375ZM121.836 54.9648V45.3203H125.211V58H122.035L121.836 54.9648ZM122.211 52.3633L123.207 52.3398C123.207 53.1836 123.109 53.9688 122.914 54.6953C122.719 55.4141 122.426 56.0391 122.035 56.5703C121.645 57.0938 121.152 57.5039 120.559 57.8008C119.965 58.0898 119.266 58.2344 118.461 58.2344C117.844 58.2344 117.273 58.1484 116.75 57.9766C116.234 57.7969 115.789 57.5195 115.414 57.1445C115.047 56.7617 114.758 56.2734 114.547 55.6797C114.344 55.0781 114.242 54.3555 114.242 53.5117V45.3203H117.617V53.5352C117.617 53.9102 117.66 54.2266 117.746 54.4844C117.84 54.7422 117.969 54.9531 118.133 55.1172C118.297 55.2812 118.488 55.3984 118.707 55.4688C118.934 55.5391 119.184 55.5742 119.457 55.5742C120.152 55.5742 120.699 55.4336 121.098 55.1523C121.504 54.8711 121.789 54.4883 121.953 54.0039C122.125 53.5117 122.211 52.9648 122.211 52.3633ZM131.352 40V58H127.965V40H131.352ZM140.352 45.3203V47.7109H132.969V45.3203H140.352ZM134.797 42.1914H138.172V54.1797C138.172 54.5469 138.219 54.8281 138.312 55.0234C138.414 55.2188 138.562 55.3555 138.758 55.4336C138.953 55.5039 139.199 55.5391 139.496 55.5391C139.707 55.5391 139.895 55.5312 140.059 55.5156C140.23 55.4922 140.375 55.4688 140.492 55.4453L140.504 57.9297C140.215 58.0234 139.902 58.0977 139.566 58.1523C139.23 58.207 138.859 58.2344 138.453 58.2344C137.711 58.2344 137.062 58.1133 136.508 57.8711C135.961 57.6211 135.539 57.2227 135.242 56.6758C134.945 56.1289 134.797 55.4102 134.797 54.5195V42.1914ZM145.836 45.3203V58H142.449V45.3203H145.836ZM142.238 42.0156C142.238 41.5234 142.41 41.1172 142.754 40.7969C143.098 40.4766 143.559 40.3164 144.137 40.3164C144.707 40.3164 145.164 40.4766 145.508 40.7969C145.859 41.1172 146.035 41.5234 146.035 42.0156C146.035 42.5078 145.859 42.9141 145.508 43.2344C145.164 43.5547 144.707 43.7148 144.137 43.7148C143.559 43.7148 143.098 43.5547 142.754 43.2344C142.41 42.9141 142.238 42.5078 142.238 42.0156ZM154.988 54.4375L159.008 40.9375H162.922L156.98 58H154.402L154.988 54.4375ZM151.285 40.9375L155.293 54.4375L155.902 58H153.301L147.395 40.9375H151.285ZM169.625 58.2344C168.641 58.2344 167.758 58.0781 166.977 57.7656C166.195 57.4453 165.531 57.0039 164.984 56.4414C164.445 55.8789 164.031 55.2266 163.742 54.4844C163.453 53.7344 163.309 52.9375 163.309 52.0938V51.625C163.309 50.6641 163.445 49.7852 163.719 48.9883C163.992 48.1914 164.383 47.5 164.891 46.9141C165.406 46.3281 166.031 45.8789 166.766 45.5664C167.5 45.2461 168.328 45.0859 169.25 45.0859C170.148 45.0859 170.945 45.2344 171.641 45.5312C172.336 45.8281 172.918 46.25 173.387 46.7969C173.863 47.3438 174.223 48 174.465 48.7656C174.707 49.5234 174.828 50.3672 174.828 51.2969V52.7031H164.75V50.4531H171.512V50.1953C171.512 49.7266 171.426 49.3086 171.254 48.9414C171.09 48.5664 170.84 48.2695 170.504 48.0508C170.168 47.832 169.738 47.7227 169.215 47.7227C168.77 47.7227 168.387 47.8203 168.066 48.0156C167.746 48.2109 167.484 48.4844 167.281 48.8359C167.086 49.1875 166.938 49.6016 166.836 50.0781C166.742 50.5469 166.695 51.0625 166.695 51.625V52.0938C166.695 52.6016 166.766 53.0703 166.906 53.5C167.055 53.9297 167.262 54.3008 167.527 54.6133C167.801 54.9258 168.129 55.168 168.512 55.3398C168.902 55.5117 169.344 55.5977 169.836 55.5977C170.445 55.5977 171.012 55.4805 171.535 55.2461C172.066 55.0039 172.523 54.6406 172.906 54.1562L174.547 55.9375C174.281 56.3203 173.918 56.6875 173.457 57.0391C173.004 57.3906 172.457 57.6797 171.816 57.9062C171.176 58.125 170.445 58.2344 169.625 58.2344ZM180.055 48.0273V58H176.68V45.3203H179.844L180.055 48.0273ZM179.562 51.2148H178.648C178.648 50.2773 178.77 49.4336 179.012 48.6836C179.254 47.9258 179.594 47.2812 180.031 46.75C180.469 46.2109 180.988 45.8008 181.59 45.5195C182.199 45.2305 182.879 45.0859 183.629 45.0859C184.223 45.0859 184.766 45.1719 185.258 45.3438C185.75 45.5156 186.172 45.7891 186.523 46.1641C186.883 46.5391 187.156 47.0352 187.344 47.6523C187.539 48.2695 187.637 49.0234 187.637 49.9141V58H184.238V49.9023C184.238 49.3398 184.16 48.9023 184.004 48.5898C183.848 48.2773 183.617 48.0586 183.312 47.9336C183.016 47.8008 182.648 47.7344 182.211 47.7344C181.758 47.7344 181.363 47.8242 181.027 48.0039C180.699 48.1836 180.426 48.4336 180.207 48.7539C179.996 49.0664 179.836 49.4336 179.727 49.8555C179.617 50.2773 179.562 50.7305 179.562 51.2148ZM197.691 55.2344V40H201.09V58H198.031L197.691 55.2344ZM189.676 51.8125V51.5664C189.676 50.5977 189.785 49.7188 190.004 48.9297C190.223 48.1328 190.543 47.4492 190.965 46.8789C191.387 46.3086 191.906 45.8672 192.523 45.5547C193.141 45.2422 193.844 45.0859 194.633 45.0859C195.375 45.0859 196.023 45.2422 196.578 45.5547C197.141 45.8672 197.617 46.3125 198.008 46.8906C198.406 47.4609 198.727 48.1367 198.969 48.918C199.211 49.6914 199.387 50.5391 199.496 51.4609V52C199.387 52.8828 199.211 53.7031 198.969 54.4609C198.727 55.2188 198.406 55.8828 198.008 56.4531C197.617 57.0156 197.141 57.4531 196.578 57.7656C196.016 58.0781 195.359 58.2344 194.609 58.2344C193.82 58.2344 193.117 58.0742 192.5 57.7539C191.891 57.4336 191.375 56.9844 190.953 56.4062C190.539 55.8281 190.223 55.1484 190.004 54.3672C189.785 53.5859 189.676 52.7344 189.676 51.8125ZM193.051 51.5664V51.8125C193.051 52.3359 193.09 52.8242 193.168 53.2773C193.254 53.7305 193.391 54.1328 193.578 54.4844C193.773 54.8281 194.023 55.0977 194.328 55.293C194.641 55.4805 195.02 55.5742 195.465 55.5742C196.043 55.5742 196.52 55.4453 196.895 55.1875C197.27 54.9219 197.555 54.5586 197.75 54.0977C197.953 53.6367 198.07 53.1055 198.102 52.5039V50.9688C198.078 50.4766 198.008 50.0352 197.891 49.6445C197.781 49.2461 197.617 48.9062 197.398 48.625C197.188 48.3438 196.922 48.125 196.602 47.9688C196.289 47.8125 195.918 47.7344 195.488 47.7344C195.051 47.7344 194.676 47.8359 194.363 48.0391C194.051 48.2344 193.797 48.5039 193.602 48.8477C193.414 49.1914 193.273 49.5977 193.18 50.0664C193.094 50.5273 193.051 51.0273 193.051 51.5664ZM203.188 51.7891V51.543C203.188 50.6133 203.32 49.7578 203.586 48.9766C203.852 48.1875 204.238 47.5039 204.746 46.9258C205.254 46.3477 205.879 45.8984 206.621 45.5781C207.363 45.25 208.215 45.0859 209.176 45.0859C210.137 45.0859 210.992 45.25 211.742 45.5781C212.492 45.8984 213.121 46.3477 213.629 46.9258C214.145 47.5039 214.535 48.1875 214.801 48.9766C215.066 49.7578 215.199 50.6133 215.199 51.543V51.7891C215.199 52.7109 215.066 53.5664 214.801 54.3555C214.535 55.1367 214.145 55.8203 213.629 56.4062C213.121 56.9844 212.496 57.4336 211.754 57.7539C211.012 58.0742 210.16 58.2344 209.199 58.2344C208.238 58.2344 207.383 58.0742 206.633 57.7539C205.891 57.4336 205.262 56.9844 204.746 56.4062C204.238 55.8203 203.852 55.1367 203.586 54.3555C203.32 53.5664 203.188 52.7109 203.188 51.7891ZM206.562 51.543V51.7891C206.562 52.3203 206.609 52.8164 206.703 53.2773C206.797 53.7383 206.945 54.1445 207.148 54.4961C207.359 54.8398 207.633 55.1094 207.969 55.3047C208.305 55.5 208.715 55.5977 209.199 55.5977C209.668 55.5977 210.07 55.5 210.406 55.3047C210.742 55.1094 211.012 54.8398 211.215 54.4961C211.418 54.1445 211.566 53.7383 211.66 53.2773C211.762 52.8164 211.812 52.3203 211.812 51.7891V51.543C211.812 51.0273 211.762 50.543 211.66 50.0898C211.566 49.6289 211.414 49.2227 211.203 48.8711C211 48.5117 210.73 48.2305 210.395 48.0273C210.059 47.8242 209.652 47.7227 209.176 47.7227C208.699 47.7227 208.293 47.8242 207.957 48.0273C207.629 48.2305 207.359 48.5117 207.148 48.8711C206.945 49.2227 206.797 49.6289 206.703 50.0898C206.609 50.543 206.562 51.0273 206.562 51.543ZM220.648 48.0859V58H217.273V45.3203H220.449L220.648 48.0859ZM224.469 45.2383L224.41 48.3672C224.246 48.3438 224.047 48.3242 223.812 48.3086C223.586 48.2852 223.379 48.2734 223.191 48.2734C222.715 48.2734 222.301 48.3359 221.949 48.4609C221.605 48.5781 221.316 48.7539 221.082 48.9883C220.855 49.2227 220.684 49.5078 220.566 49.8438C220.457 50.1797 220.395 50.5625 220.379 50.9922L219.699 50.7812C219.699 49.9609 219.781 49.207 219.945 48.5195C220.109 47.8242 220.348 47.2188 220.66 46.7031C220.98 46.1875 221.371 45.7891 221.832 45.5078C222.293 45.2266 222.82 45.0859 223.414 45.0859C223.602 45.0859 223.793 45.1016 223.988 45.1328C224.184 45.1562 224.344 45.1914 224.469 45.2383Z" fill="#888888"/>
<path d="M109.93 86.0078V118H102.217V86.0078H109.93ZM119.554 86.0078V91.9624H92.813V86.0078H119.554ZM132.012 118.439C130.079 118.439 128.35 118.139 126.827 117.539C125.303 116.923 124.014 116.081 122.959 115.012C121.919 113.942 121.121 112.712 120.564 111.32C120.022 109.929 119.751 108.457 119.751 106.904V106.069C119.751 104.326 119.993 102.714 120.477 101.235C120.96 99.7407 121.678 98.437 122.63 97.3237C123.582 96.2104 124.776 95.3462 126.211 94.731C127.647 94.1011 129.317 93.7861 131.221 93.7861C132.906 93.7861 134.415 94.0571 135.748 94.5991C137.081 95.1411 138.208 95.9175 139.131 96.9282C140.069 97.939 140.779 99.1621 141.263 100.598C141.761 102.033 142.01 103.645 142.01 105.432V108.442H122.586V103.806H134.781V103.234C134.795 102.443 134.656 101.77 134.363 101.213C134.085 100.656 133.675 100.231 133.133 99.9385C132.591 99.6455 131.932 99.499 131.155 99.499C130.35 99.499 129.683 99.6748 129.156 100.026C128.643 100.378 128.24 100.861 127.947 101.477C127.669 102.077 127.471 102.773 127.354 103.564C127.237 104.355 127.178 105.19 127.178 106.069V106.904C127.178 107.783 127.295 108.581 127.53 109.299C127.779 110.017 128.13 110.632 128.584 111.145C129.053 111.643 129.61 112.031 130.254 112.309C130.914 112.587 131.661 112.727 132.496 112.727C133.506 112.727 134.502 112.536 135.484 112.155C136.465 111.774 137.308 111.145 138.011 110.266L141.373 114.265C140.889 114.953 140.201 115.62 139.307 116.264C138.428 116.909 137.374 117.436 136.143 117.846C134.913 118.242 133.536 118.439 132.012 118.439ZM155.062 112.727C155.75 112.727 156.336 112.602 156.819 112.353C157.317 112.089 157.691 111.723 157.94 111.254C158.204 110.771 158.328 110.192 158.313 109.519H165.279C165.293 111.306 164.854 112.873 163.96 114.221C163.082 115.554 161.88 116.594 160.357 117.341C158.848 118.073 157.142 118.439 155.237 118.439C153.377 118.439 151.751 118.139 150.359 117.539C148.968 116.923 147.803 116.074 146.866 114.99C145.943 113.891 145.247 112.609 144.778 111.145C144.324 109.68 144.097 108.09 144.097 106.376V105.871C144.097 104.157 144.324 102.568 144.778 101.103C145.247 99.6235 145.943 98.3418 146.866 97.2578C147.803 96.1592 148.96 95.3096 150.337 94.709C151.729 94.0938 153.348 93.7861 155.193 93.7861C157.171 93.7861 158.914 94.1597 160.423 94.9067C161.946 95.6538 163.14 96.7378 164.004 98.1587C164.869 99.5796 165.293 101.301 165.279 103.322H158.313C158.328 102.604 158.218 101.96 157.984 101.389C157.75 100.817 157.383 100.363 156.885 100.026C156.402 99.6748 155.779 99.499 155.018 99.499C154.256 99.499 153.641 99.6675 153.172 100.004C152.703 100.341 152.344 100.81 152.095 101.411C151.861 101.997 151.7 102.67 151.612 103.432C151.539 104.194 151.502 105.007 151.502 105.871V106.376C151.502 107.255 151.539 108.083 151.612 108.859C151.7 109.621 151.868 110.295 152.117 110.881C152.366 111.452 152.725 111.906 153.194 112.243C153.663 112.565 154.285 112.727 155.062 112.727ZM175.694 84.25V118H168.289V84.25H175.694ZM174.815 105.3L173.079 105.344C173.079 103.674 173.284 102.136 173.694 100.729C174.104 99.3232 174.69 98.1001 175.452 97.0601C176.214 96.02 177.129 95.2144 178.199 94.6431C179.268 94.0718 180.455 93.7861 181.758 93.7861C182.93 93.7861 184 93.9546 184.966 94.2915C185.948 94.6284 186.79 95.1704 187.493 95.9175C188.211 96.6646 188.76 97.6387 189.141 98.8398C189.537 100.041 189.734 101.506 189.734 103.234V118H182.286V103.19C182.286 102.224 182.146 101.477 181.868 100.949C181.604 100.407 181.224 100.034 180.726 99.8286C180.228 99.6089 179.62 99.499 178.902 99.499C178.038 99.499 177.334 99.6455 176.792 99.9385C176.25 100.231 175.833 100.642 175.54 101.169C175.262 101.682 175.071 102.29 174.969 102.993C174.866 103.696 174.815 104.465 174.815 105.3ZM221.88 109.497C221.88 108.999 221.807 108.552 221.661 108.156C221.514 107.746 221.243 107.365 220.848 107.014C220.452 106.662 219.881 106.311 219.134 105.959C218.401 105.593 217.435 105.212 216.233 104.816C214.827 104.348 213.472 103.82 212.168 103.234C210.865 102.634 209.7 101.938 208.675 101.147C207.649 100.341 206.836 99.4038 206.236 98.3345C205.635 97.2505 205.335 95.9907 205.335 94.5552C205.335 93.1782 205.643 91.9404 206.258 90.8418C206.873 89.7285 207.73 88.7837 208.829 88.0073C209.942 87.2163 211.246 86.6157 212.74 86.2056C214.234 85.7808 215.867 85.5684 217.64 85.5684C219.983 85.5684 222.049 85.9785 223.836 86.7988C225.638 87.6045 227.044 88.7544 228.055 90.2485C229.08 91.728 229.593 93.4785 229.593 95.5H221.924C221.924 94.6943 221.756 93.9839 221.419 93.3687C221.097 92.7534 220.606 92.27 219.947 91.9185C219.288 91.5669 218.46 91.3911 217.464 91.3911C216.497 91.3911 215.684 91.5376 215.025 91.8306C214.366 92.1235 213.868 92.519 213.531 93.0171C213.194 93.5005 213.025 94.0352 213.025 94.6211C213.025 95.1045 213.157 95.5439 213.421 95.9395C213.699 96.3203 214.087 96.6792 214.585 97.0161C215.098 97.353 215.713 97.6753 216.431 97.9829C217.164 98.2905 217.984 98.5908 218.892 98.8838C220.591 99.4258 222.1 100.034 223.418 100.708C224.751 101.367 225.872 102.121 226.78 102.971C227.703 103.806 228.399 104.758 228.868 105.827C229.351 106.896 229.593 108.105 229.593 109.453C229.593 110.888 229.314 112.163 228.758 113.276C228.201 114.389 227.403 115.334 226.363 116.11C225.323 116.872 224.078 117.451 222.627 117.846C221.177 118.242 219.559 118.439 217.771 118.439C216.131 118.439 214.512 118.234 212.916 117.824C211.333 117.399 209.898 116.755 208.609 115.891C207.32 115.012 206.287 113.891 205.511 112.529C204.749 111.152 204.368 109.519 204.368 107.629H212.103C212.103 108.566 212.227 109.357 212.476 110.002C212.725 110.646 213.091 111.167 213.575 111.562C214.058 111.943 214.651 112.221 215.354 112.397C216.058 112.558 216.863 112.639 217.771 112.639C218.753 112.639 219.544 112.5 220.145 112.221C220.745 111.928 221.185 111.547 221.463 111.079C221.741 110.595 221.88 110.068 221.88 109.497ZM245.743 94.2256V99.3672H231.417V94.2256H245.743ZM234.427 88.3149H241.832V110.244C241.832 110.874 241.905 111.364 242.051 111.716C242.198 112.053 242.447 112.294 242.798 112.441C243.165 112.573 243.648 112.639 244.249 112.639C244.673 112.639 245.025 112.631 245.303 112.617C245.582 112.587 245.845 112.551 246.094 112.507V117.802C245.464 118.007 244.805 118.161 244.117 118.264C243.428 118.381 242.696 118.439 241.919 118.439C240.337 118.439 238.982 118.19 237.854 117.692C236.741 117.194 235.892 116.411 235.306 115.341C234.72 114.272 234.427 112.88 234.427 111.167V88.3149ZM261.036 112.023V102.224C261.036 101.55 260.94 100.971 260.75 100.488C260.56 100.004 260.259 99.6309 259.849 99.3672C259.439 99.0889 258.89 98.9497 258.201 98.9497C257.645 98.9497 257.168 99.0449 256.773 99.2354C256.377 99.4258 256.077 99.7114 255.872 100.092C255.667 100.473 255.564 100.957 255.564 101.542H248.16C248.16 100.444 248.401 99.4258 248.885 98.4883C249.383 97.5361 250.086 96.7085 250.994 96.0054C251.917 95.3022 253.016 94.7603 254.29 94.3794C255.579 93.9839 257.015 93.7861 258.597 93.7861C260.486 93.7861 262.171 94.1011 263.65 94.731C265.145 95.3608 266.324 96.3057 267.188 97.5654C268.052 98.8105 268.484 100.378 268.484 102.268V112.001C268.484 113.554 268.572 114.733 268.748 115.539C268.924 116.33 269.173 117.026 269.495 117.626V118H262.068C261.717 117.268 261.453 116.374 261.277 115.319C261.116 114.25 261.036 113.151 261.036 112.023ZM261.937 103.476L261.98 107.431H258.707C258.018 107.431 257.432 107.526 256.949 107.717C256.48 107.907 256.099 108.171 255.806 108.508C255.528 108.83 255.323 109.196 255.191 109.606C255.074 110.017 255.015 110.449 255.015 110.903C255.015 111.342 255.118 111.738 255.323 112.089C255.542 112.426 255.835 112.69 256.202 112.88C256.568 113.071 256.978 113.166 257.432 113.166C258.252 113.166 258.948 113.012 259.52 112.705C260.105 112.382 260.552 111.994 260.86 111.54C261.167 111.086 261.321 110.661 261.321 110.266L262.947 113.298C262.654 113.884 262.317 114.477 261.937 115.078C261.57 115.678 261.109 116.235 260.552 116.748C260.01 117.246 259.344 117.656 258.553 117.978C257.762 118.286 256.802 118.439 255.674 118.439C254.209 118.439 252.862 118.139 251.631 117.539C250.416 116.938 249.441 116.103 248.709 115.034C247.977 113.95 247.61 112.705 247.61 111.298C247.61 110.068 247.83 108.969 248.27 108.002C248.724 107.036 249.405 106.215 250.313 105.542C251.221 104.868 252.378 104.355 253.785 104.003C255.191 103.652 256.846 103.476 258.75 103.476H261.937ZM282.635 112.727C283.323 112.727 283.909 112.602 284.393 112.353C284.891 112.089 285.264 111.723 285.513 111.254C285.777 110.771 285.901 110.192 285.887 109.519H292.852C292.867 111.306 292.427 112.873 291.534 114.221C290.655 115.554 289.454 116.594 287.93 117.341C286.421 118.073 284.715 118.439 282.811 118.439C280.95 118.439 279.324 118.139 277.933 117.539C276.541 116.923 275.376 116.074 274.439 114.99C273.516 113.891 272.82 112.609 272.352 111.145C271.897 109.68 271.67 108.09 271.67 106.376V105.871C271.67 104.157 271.897 102.568 272.352 101.103C272.82 99.6235 273.516 98.3418 274.439 97.2578C275.376 96.1592 276.534 95.3096 277.911 94.709C279.302 94.0938 280.921 93.7861 282.767 93.7861C284.744 93.7861 286.487 94.1597 287.996 94.9067C289.52 95.6538 290.713 96.7378 291.578 98.1587C292.442 99.5796 292.867 101.301 292.852 103.322H285.887C285.901 102.604 285.792 101.96 285.557 101.389C285.323 100.817 284.957 100.363 284.458 100.026C283.975 99.6748 283.353 99.499 282.591 99.499C281.829 99.499 281.214 99.6675 280.745 100.004C280.276 100.341 279.917 100.81 279.668 101.411C279.434 101.997 279.273 102.67 279.185 103.432C279.112 104.194 279.075 105.007 279.075 105.871V106.376C279.075 107.255 279.112 108.083 279.185 108.859C279.273 109.621 279.441 110.295 279.69 110.881C279.939 111.452 280.298 111.906 280.767 112.243C281.236 112.565 281.858 112.727 282.635 112.727ZM303.487 84.228V118H296.082V84.228H303.487ZM318.692 94.2256L308.365 106.333L302.959 111.738L299.729 107.036L304.234 101.169L309.815 94.2256H318.692ZM310.76 118L304.41 107.167L309.881 103.278L319.241 118H310.76Z" fill="#424241"/>
<path d="M1363 15C1363 6.71573 1356.28 0 1348 0H1134V167H1348C1356.28 167 1363 160.284 1363 152V15Z" fill="#62C6FF"/>
<path fill-rule="evenodd" clip-rule="evenodd" d="M1218.5 55C1218.37 55 1218.24 55.0527 1218.15 55.1464C1218.05 55.2402 1218 55.3674 1218 55.5V111.5C1218 111.633 1218.05 111.76 1218.15 111.854C1218.24 111.947 1218.37 112 1218.5 112H1278C1278.13 112 1278.26 111.947 1278.35 111.854C1278.45 111.76 1278.5 111.633 1278.5 111.5V66C1278.5 65.8674 1278.45 65.7402 1278.35 65.6464C1278.26 65.5527 1278.13 65.5 1278 65.5H1248.25C1247.36 65.5 1246.52 65.1045 1245.95 64.4206L1238.09 55H1218.5ZM1213.9 50.9038C1215.12 49.6848 1216.78 49 1218.5 49H1239.5C1240.39 49 1241.23 49.3955 1241.8 50.0794L1249.66 59.5H1278C1279.72 59.5 1281.38 60.1848 1282.6 61.4038C1283.82 62.6228 1284.5 64.2761 1284.5 66V111.5C1284.5 113.224 1283.82 114.877 1282.6 116.096C1281.38 117.315 1279.72 118 1278 118H1218.5C1216.78 118 1215.12 117.315 1213.9 116.096C1212.68 114.877 1212 113.224 1212 111.5V55.5C1212 53.7761 1212.68 52.1228 1213.9 50.9038Z" fill="white"/>
<path fill-rule="evenodd" clip-rule="evenodd" d="M1243.72 77.5251C1245.09 78.892 1245.09 81.108 1243.72 82.4749L1237.45 88.75L1243.72 95.0251C1245.09 96.392 1245.09 98.608 1243.72 99.9749C1242.36 101.342 1240.14 101.342 1238.78 99.9749L1230.03 91.2249C1228.66 89.858 1228.66 87.642 1230.03 86.2751L1238.78 77.5251C1240.14 76.1583 1242.36 76.1583 1243.72 77.5251Z" fill="white"/>
<path fill-rule="evenodd" clip-rule="evenodd" d="M1252.03 99.9749C1250.66 98.608 1250.66 96.392 1252.03 95.0251L1258.3 88.75L1252.03 82.4749C1250.66 81.108 1250.66 78.892 1252.03 77.5251C1253.39 76.1583 1255.61 76.1583 1256.97 77.5251L1265.72 86.2751C1267.09 87.642 1267.09 89.858 1265.72 91.2249L1256.97 99.9749C1255.61 101.342 1253.39 101.342 1252.03 99.9749Z" fill="white"/>
</svg>
