<svg width="1363" height="167" viewBox="0 0 1363 167" fill="none" xmlns="http://www.w3.org/2000/svg">
<rect width="1363" height="167" rx="15" fill="#F0F0F0"/>
<path d="M0 15C0 6.71573 6.71573 0 15 0H37V167H15C6.71573 167 0 160.284 0 152V15Z" fill="#424241"/>
<path d="M95.1289 40.9375H98.1055L102.488 53.4648L106.871 40.9375H109.848L103.684 58H101.293L95.1289 40.9375ZM93.5234 40.9375H96.4883L97.0273 53.1484V58H93.5234V40.9375ZM108.488 40.9375H111.465V58H107.949V53.1484L108.488 40.9375ZM121.836 54.9648V45.3203H125.211V58H122.035L121.836 54.9648ZM122.211 52.3633L123.207 52.3398C123.207 53.1836 123.109 53.9688 122.914 54.6953C122.719 55.4141 122.426 56.0391 122.035 56.5703C121.645 57.0938 121.152 57.5039 120.559 57.8008C119.965 58.0898 119.266 58.2344 118.461 58.2344C117.844 58.2344 117.273 58.1484 116.75 57.9766C116.234 57.7969 115.789 57.5195 115.414 57.1445C115.047 56.7617 114.758 56.2734 114.547 55.6797C114.344 55.0781 114.242 54.3555 114.242 53.5117V45.3203H117.617V53.5352C117.617 53.9102 117.66 54.2266 117.746 54.4844C117.84 54.7422 117.969 54.9531 118.133 55.1172C118.297 55.2812 118.488 55.3984 118.707 55.4688C118.934 55.5391 119.184 55.5742 119.457 55.5742C120.152 55.5742 120.699 55.4336 121.098 55.1523C121.504 54.8711 121.789 54.4883 121.953 54.0039C122.125 53.5117 122.211 52.9648 122.211 52.3633ZM131.352 40V58H127.965V40H131.352ZM140.352 45.3203V47.7109H132.969V45.3203H140.352ZM134.797 42.1914H138.172V54.1797C138.172 54.5469 138.219 54.8281 138.312 55.0234C138.414 55.2188 138.562 55.3555 138.758 55.4336C138.953 55.5039 139.199 55.5391 139.496 55.5391C139.707 55.5391 139.895 55.5312 140.059 55.5156C140.23 55.4922 140.375 55.4688 140.492 55.4453L140.504 57.9297C140.215 58.0234 139.902 58.0977 139.566 58.1523C139.23 58.207 138.859 58.2344 138.453 58.2344C137.711 58.2344 137.062 58.1133 136.508 57.8711C135.961 57.6211 135.539 57.2227 135.242 56.6758C134.945 56.1289 134.797 55.4102 134.797 54.5195V42.1914ZM145.836 45.3203V58H142.449V45.3203H145.836ZM142.238 42.0156C142.238 41.5234 142.41 41.1172 142.754 40.7969C143.098 40.4766 143.559 40.3164 144.137 40.3164C144.707 40.3164 145.164 40.4766 145.508 40.7969C145.859 41.1172 146.035 41.5234 146.035 42.0156C146.035 42.5078 145.859 42.9141 145.508 43.2344C145.164 43.5547 144.707 43.7148 144.137 43.7148C143.559 43.7148 143.098 43.5547 142.754 43.2344C142.41 42.9141 142.238 42.5078 142.238 42.0156ZM154.988 54.4375L159.008 40.9375H162.922L156.98 58H154.402L154.988 54.4375ZM151.285 40.9375L155.293 54.4375L155.902 58H153.301L147.395 40.9375H151.285ZM169.625 58.2344C168.641 58.2344 167.758 58.0781 166.977 57.7656C166.195 57.4453 165.531 57.0039 164.984 56.4414C164.445 55.8789 164.031 55.2266 163.742 54.4844C163.453 53.7344 163.309 52.9375 163.309 52.0938V51.625C163.309 50.6641 163.445 49.7852 163.719 48.9883C163.992 48.1914 164.383 47.5 164.891 46.9141C165.406 46.3281 166.031 45.8789 166.766 45.5664C167.5 45.2461 168.328 45.0859 169.25 45.0859C170.148 45.0859 170.945 45.2344 171.641 45.5312C172.336 45.8281 172.918 46.25 173.387 46.7969C173.863 47.3438 174.223 48 174.465 48.7656C174.707 49.5234 174.828 50.3672 174.828 51.2969V52.7031H164.75V50.4531H171.512V50.1953C171.512 49.7266 171.426 49.3086 171.254 48.9414C171.09 48.5664 170.84 48.2695 170.504 48.0508C170.168 47.832 169.738 47.7227 169.215 47.7227C168.77 47.7227 168.387 47.8203 168.066 48.0156C167.746 48.2109 167.484 48.4844 167.281 48.8359C167.086 49.1875 166.938 49.6016 166.836 50.0781C166.742 50.5469 166.695 51.0625 166.695 51.625V52.0938C166.695 52.6016 166.766 53.0703 166.906 53.5C167.055 53.9297 167.262 54.3008 167.527 54.6133C167.801 54.9258 168.129 55.168 168.512 55.3398C168.902 55.5117 169.344 55.5977 169.836 55.5977C170.445 55.5977 171.012 55.4805 171.535 55.2461C172.066 55.0039 172.523 54.6406 172.906 54.1562L174.547 55.9375C174.281 56.3203 173.918 56.6875 173.457 57.0391C173.004 57.3906 172.457 57.6797 171.816 57.9062C171.176 58.125 170.445 58.2344 169.625 58.2344ZM180.055 48.0273V58H176.68V45.3203H179.844L180.055 48.0273ZM179.562 51.2148H178.648C178.648 50.2773 178.77 49.4336 179.012 48.6836C179.254 47.9258 179.594 47.2812 180.031 46.75C180.469 46.2109 180.988 45.8008 181.59 45.5195C182.199 45.2305 182.879 45.0859 183.629 45.0859C184.223 45.0859 184.766 45.1719 185.258 45.3438C185.75 45.5156 186.172 45.7891 186.523 46.1641C186.883 46.5391 187.156 47.0352 187.344 47.6523C187.539 48.2695 187.637 49.0234 187.637 49.9141V58H184.238V49.9023C184.238 49.3398 184.16 48.9023 184.004 48.5898C183.848 48.2773 183.617 48.0586 183.312 47.9336C183.016 47.8008 182.648 47.7344 182.211 47.7344C181.758 47.7344 181.363 47.8242 181.027 48.0039C180.699 48.1836 180.426 48.4336 180.207 48.7539C179.996 49.0664 179.836 49.4336 179.727 49.8555C179.617 50.2773 179.562 50.7305 179.562 51.2148ZM197.691 55.2344V40H201.09V58H198.031L197.691 55.2344ZM189.676 51.8125V51.5664C189.676 50.5977 189.785 49.7188 190.004 48.9297C190.223 48.1328 190.543 47.4492 190.965 46.8789C191.387 46.3086 191.906 45.8672 192.523 45.5547C193.141 45.2422 193.844 45.0859 194.633 45.0859C195.375 45.0859 196.023 45.2422 196.578 45.5547C197.141 45.8672 197.617 46.3125 198.008 46.8906C198.406 47.4609 198.727 48.1367 198.969 48.918C199.211 49.6914 199.387 50.5391 199.496 51.4609V52C199.387 52.8828 199.211 53.7031 198.969 54.4609C198.727 55.2188 198.406 55.8828 198.008 56.4531C197.617 57.0156 197.141 57.4531 196.578 57.7656C196.016 58.0781 195.359 58.2344 194.609 58.2344C193.82 58.2344 193.117 58.0742 192.5 57.7539C191.891 57.4336 191.375 56.9844 190.953 56.4062C190.539 55.8281 190.223 55.1484 190.004 54.3672C189.785 53.5859 189.676 52.7344 189.676 51.8125ZM193.051 51.5664V51.8125C193.051 52.3359 193.09 52.8242 193.168 53.2773C193.254 53.7305 193.391 54.1328 193.578 54.4844C193.773 54.8281 194.023 55.0977 194.328 55.293C194.641 55.4805 195.02 55.5742 195.465 55.5742C196.043 55.5742 196.52 55.4453 196.895 55.1875C197.27 54.9219 197.555 54.5586 197.75 54.0977C197.953 53.6367 198.07 53.1055 198.102 52.5039V50.9688C198.078 50.4766 198.008 50.0352 197.891 49.6445C197.781 49.2461 197.617 48.9062 197.398 48.625C197.188 48.3438 196.922 48.125 196.602 47.9688C196.289 47.8125 195.918 47.7344 195.488 47.7344C195.051 47.7344 194.676 47.8359 194.363 48.0391C194.051 48.2344 193.797 48.5039 193.602 48.8477C193.414 49.1914 193.273 49.5977 193.18 50.0664C193.094 50.5273 193.051 51.0273 193.051 51.5664ZM203.188 51.7891V51.543C203.188 50.6133 203.32 49.7578 203.586 48.9766C203.852 48.1875 204.238 47.5039 204.746 46.9258C205.254 46.3477 205.879 45.8984 206.621 45.5781C207.363 45.25 208.215 45.0859 209.176 45.0859C210.137 45.0859 210.992 45.25 211.742 45.5781C212.492 45.8984 213.121 46.3477 213.629 46.9258C214.145 47.5039 214.535 48.1875 214.801 48.9766C215.066 49.7578 215.199 50.6133 215.199 51.543V51.7891C215.199 52.7109 215.066 53.5664 214.801 54.3555C214.535 55.1367 214.145 55.8203 213.629 56.4062C213.121 56.9844 212.496 57.4336 211.754 57.7539C211.012 58.0742 210.16 58.2344 209.199 58.2344C208.238 58.2344 207.383 58.0742 206.633 57.7539C205.891 57.4336 205.262 56.9844 204.746 56.4062C204.238 55.8203 203.852 55.1367 203.586 54.3555C203.32 53.5664 203.188 52.7109 203.188 51.7891ZM206.562 51.543V51.7891C206.562 52.3203 206.609 52.8164 206.703 53.2773C206.797 53.7383 206.945 54.1445 207.148 54.4961C207.359 54.8398 207.633 55.1094 207.969 55.3047C208.305 55.5 208.715 55.5977 209.199 55.5977C209.668 55.5977 210.07 55.5 210.406 55.3047C210.742 55.1094 211.012 54.8398 211.215 54.4961C211.418 54.1445 211.566 53.7383 211.66 53.2773C211.762 52.8164 211.812 52.3203 211.812 51.7891V51.543C211.812 51.0273 211.762 50.543 211.66 50.0898C211.566 49.6289 211.414 49.2227 211.203 48.8711C211 48.5117 210.73 48.2305 210.395 48.0273C210.059 47.8242 209.652 47.7227 209.176 47.7227C208.699 47.7227 208.293 47.8242 207.957 48.0273C207.629 48.2305 207.359 48.5117 207.148 48.8711C206.945 49.2227 206.797 49.6289 206.703 50.0898C206.609 50.543 206.562 51.0273 206.562 51.543ZM220.648 48.0859V58H217.273V45.3203H220.449L220.648 48.0859ZM224.469 45.2383L224.41 48.3672C224.246 48.3438 224.047 48.3242 223.812 48.3086C223.586 48.2852 223.379 48.2734 223.191 48.2734C222.715 48.2734 222.301 48.3359 221.949 48.4609C221.605 48.5781 221.316 48.7539 221.082 48.9883C220.855 49.2227 220.684 49.5078 220.566 49.8438C220.457 50.1797 220.395 50.5625 220.379 50.9922L219.699 50.7812C219.699 49.9609 219.781 49.207 219.945 48.5195C220.109 47.8242 220.348 47.2188 220.66 46.7031C220.98 46.1875 221.371 45.7891 221.832 45.5078C222.293 45.2266 222.82 45.0859 223.414 45.0859C223.602 45.0859 223.793 45.1016 223.988 45.1328C224.184 45.1562 224.344 45.1914 224.469 45.2383Z" fill="#888888"/>
<path d="M115.994 98.708V104.641H99.5806V98.708H115.994ZM102.151 86.0078V118H94.439V86.0078H102.151ZM121.18 86.0078V118H113.489V86.0078H121.18ZM124.805 106.354V105.893C124.805 104.15 125.054 102.546 125.552 101.081C126.05 99.6016 126.783 98.3198 127.75 97.2358C128.716 96.1519 129.91 95.3096 131.331 94.709C132.752 94.0938 134.393 93.7861 136.253 93.7861C138.128 93.7861 139.776 94.0938 141.197 94.709C142.632 95.3096 143.833 96.1519 144.8 97.2358C145.767 98.3198 146.5 99.6016 146.998 101.081C147.496 102.546 147.745 104.15 147.745 105.893V106.354C147.745 108.083 147.496 109.687 146.998 111.167C146.5 112.631 145.767 113.913 144.8 115.012C143.833 116.096 142.64 116.938 141.219 117.539C139.798 118.139 138.157 118.439 136.297 118.439C134.437 118.439 132.789 118.139 131.353 117.539C129.917 116.938 128.716 116.096 127.75 115.012C126.783 113.913 126.05 112.631 125.552 111.167C125.054 109.687 124.805 108.083 124.805 106.354ZM132.21 105.893V106.354C132.21 107.248 132.276 108.083 132.408 108.859C132.54 109.636 132.759 110.317 133.067 110.903C133.375 111.474 133.792 111.921 134.319 112.243C134.847 112.565 135.506 112.727 136.297 112.727C137.073 112.727 137.718 112.565 138.23 112.243C138.758 111.921 139.175 111.474 139.483 110.903C139.791 110.317 140.01 109.636 140.142 108.859C140.274 108.083 140.34 107.248 140.34 106.354V105.893C140.34 105.029 140.274 104.216 140.142 103.454C140.01 102.678 139.791 101.997 139.483 101.411C139.175 100.81 138.758 100.341 138.23 100.004C137.703 99.6675 137.044 99.499 136.253 99.499C135.477 99.499 134.825 99.6675 134.297 100.004C133.785 100.341 133.375 100.81 133.067 101.411C132.759 101.997 132.54 102.678 132.408 103.454C132.276 104.216 132.21 105.029 132.21 105.893ZM158.27 110.925L162.664 94.2256H167.3L165.652 102.597L161.302 118H157.588L158.27 110.925ZM156.534 94.2256L159.258 110.793L159.566 118H155.062L149.437 94.2256H156.534ZM171.211 110.441L173.958 94.2256H181.055L175.474 118H170.97L171.211 110.441ZM167.828 94.2256L172.266 110.881L172.947 118H169.19L164.927 102.641L163.345 94.2256H167.828ZM209.466 86.0078V118H201.753V86.0078H209.466ZM219.09 86.0078V91.9624H192.349V86.0078H219.09ZM216.475 106.354V105.893C216.475 104.15 216.724 102.546 217.222 101.081C217.72 99.6016 218.453 98.3198 219.419 97.2358C220.386 96.1519 221.58 95.3096 223.001 94.709C224.422 94.0938 226.062 93.7861 227.923 93.7861C229.798 93.7861 231.446 94.0938 232.867 94.709C234.302 95.3096 235.503 96.1519 236.47 97.2358C237.437 98.3198 238.169 99.6016 238.667 101.081C239.166 102.546 239.415 104.15 239.415 105.893V106.354C239.415 108.083 239.166 109.687 238.667 111.167C238.169 112.631 237.437 113.913 236.47 115.012C235.503 116.096 234.31 116.938 232.889 117.539C231.468 118.139 229.827 118.439 227.967 118.439C226.106 118.439 224.458 118.139 223.023 117.539C221.587 116.938 220.386 116.096 219.419 115.012C218.453 113.913 217.72 112.631 217.222 111.167C216.724 109.687 216.475 108.083 216.475 106.354ZM223.88 105.893V106.354C223.88 107.248 223.946 108.083 224.078 108.859C224.209 109.636 224.429 110.317 224.737 110.903C225.044 111.474 225.462 111.921 225.989 112.243C226.517 112.565 227.176 112.727 227.967 112.727C228.743 112.727 229.388 112.565 229.9 112.243C230.428 111.921 230.845 111.474 231.153 110.903C231.46 110.317 231.68 109.636 231.812 108.859C231.944 108.083 232.01 107.248 232.01 106.354V105.893C232.01 105.029 231.944 104.216 231.812 103.454C231.68 102.678 231.46 101.997 231.153 101.411C230.845 100.81 230.428 100.341 229.9 100.004C229.373 99.6675 228.714 99.499 227.923 99.499C227.146 99.499 226.495 99.6675 225.967 100.004C225.455 100.341 225.044 100.81 224.737 101.411C224.429 101.997 224.209 102.678 224.078 103.454C223.946 104.216 223.88 105.029 223.88 105.893ZM254.268 86.0078H266.858C269.319 86.0078 271.458 86.374 273.274 87.1064C275.091 87.8389 276.49 88.9229 277.471 90.3584C278.467 91.7939 278.965 93.5664 278.965 95.6758C278.965 97.5068 278.68 99.0376 278.108 100.268C277.537 101.499 276.739 102.517 275.713 103.322C274.703 104.113 273.523 104.765 272.176 105.278L269.649 106.706H259.08L259.036 100.751H266.858C267.84 100.751 268.653 100.576 269.297 100.224C269.942 99.8726 270.425 99.3745 270.748 98.73C271.084 98.0708 271.253 97.2871 271.253 96.3789C271.253 95.4561 271.084 94.665 270.748 94.0059C270.411 93.3467 269.913 92.8413 269.253 92.4897C268.609 92.1382 267.811 91.9624 266.858 91.9624H261.98V118H254.268V86.0078ZM271.78 118L264.705 103.85L272.879 103.806L280.042 117.67V118H271.78ZM297.159 112.221V94.2256H304.585V118H297.642L297.159 112.221ZM297.862 107.387L299.795 107.343C299.795 108.94 299.605 110.419 299.224 111.782C298.843 113.129 298.279 114.301 297.532 115.297C296.8 116.293 295.892 117.07 294.808 117.626C293.738 118.168 292.5 118.439 291.094 118.439C289.922 118.439 288.846 118.278 287.864 117.956C286.897 117.619 286.062 117.099 285.359 116.396C284.656 115.678 284.107 114.763 283.711 113.649C283.331 112.521 283.14 111.174 283.14 109.606V94.2256H290.545V109.65C290.545 110.178 290.611 110.632 290.743 111.013C290.875 111.394 291.065 111.716 291.314 111.979C291.563 112.229 291.871 112.419 292.237 112.551C292.618 112.668 293.05 112.727 293.533 112.727C294.646 112.727 295.518 112.492 296.148 112.023C296.778 111.555 297.217 110.917 297.466 110.112C297.73 109.306 297.862 108.398 297.862 107.387ZM315.945 99.3013V118H308.541V94.2256H315.484L315.945 99.3013ZM315.066 105.3L313.331 105.344C313.331 103.527 313.55 101.909 313.99 100.488C314.429 99.0522 315.052 97.8364 315.857 96.8403C316.663 95.8442 317.623 95.0898 318.736 94.5771C319.864 94.0498 321.116 93.7861 322.493 93.7861C323.592 93.7861 324.595 93.9473 325.503 94.2695C326.426 94.5918 327.217 95.1118 327.876 95.8296C328.55 96.5474 329.063 97.4995 329.415 98.686C329.781 99.8579 329.964 101.308 329.964 103.037V118H322.515V103.015C322.515 102.062 322.383 101.337 322.12 100.839C321.856 100.327 321.475 99.9751 320.977 99.7847C320.479 99.5942 319.871 99.499 319.153 99.499C318.392 99.499 317.747 99.6455 317.22 99.9385C316.692 100.231 316.268 100.642 315.945 101.169C315.638 101.682 315.411 102.29 315.264 102.993C315.132 103.696 315.066 104.465 315.066 105.3ZM345.85 107.871H339.544C339.544 106.582 339.632 105.446 339.808 104.465C339.998 103.469 340.32 102.575 340.774 101.784C341.229 100.993 341.844 100.261 342.62 99.5869C343.309 99.0156 343.902 98.4663 344.4 97.939C344.898 97.4116 345.279 96.877 345.542 96.335C345.806 95.793 345.938 95.2144 345.938 94.5991C345.938 93.8374 345.828 93.2148 345.608 92.7314C345.403 92.248 345.088 91.8892 344.664 91.6548C344.253 91.4058 343.733 91.2812 343.104 91.2812C342.591 91.2812 342.107 91.4058 341.653 91.6548C341.214 91.9038 340.855 92.292 340.577 92.8193C340.298 93.332 340.145 94.0132 340.115 94.8628H332.667C332.71 92.6802 333.194 90.9077 334.117 89.5454C335.054 88.1685 336.299 87.165 337.852 86.5352C339.419 85.8906 341.17 85.5684 343.104 85.5684C345.242 85.5684 347.081 85.8979 348.619 86.5571C350.157 87.2163 351.336 88.1978 352.156 89.5015C352.977 90.7905 353.387 92.3799 353.387 94.2695C353.387 95.5293 353.145 96.6279 352.662 97.5654C352.193 98.4883 351.556 99.3525 350.75 100.158C349.959 100.949 349.073 101.799 348.091 102.707C347.242 103.454 346.663 104.216 346.355 104.992C346.048 105.754 345.879 106.713 345.85 107.871ZM338.643 114.55C338.643 113.496 339.024 112.617 339.786 111.914C340.547 111.196 341.536 110.837 342.752 110.837C343.968 110.837 344.957 111.196 345.718 111.914C346.48 112.617 346.861 113.496 346.861 114.55C346.861 115.605 346.48 116.491 345.718 117.209C344.957 117.912 343.968 118.264 342.752 118.264C341.536 118.264 340.547 117.912 339.786 117.209C339.024 116.491 338.643 115.605 338.643 114.55Z" fill="#424241"/>
<path d="M1363 15C1363 6.71573 1356.28 0 1348 0H1134V167H1348C1356.28 167 1363 160.284 1363 152V15Z" fill="#62C6FF"/>
<path d="M1260.77 81.3079C1263.96 81.3079 1267.09 82.2553 1269.74 84.0303C1272.4 85.8053 1274.47 88.3282 1275.69 91.2799C1276.92 94.2316 1277.24 97.4796 1276.61 100.613C1275.99 103.747 1274.45 106.625 1272.19 108.884C1269.93 111.143 1267.05 112.682 1263.92 113.305C1260.79 113.928 1257.54 113.608 1254.59 112.386C1251.64 111.163 1249.11 109.093 1247.34 106.436C1245.56 103.78 1244.62 100.657 1244.62 97.4617C1244.62 93.1774 1246.32 89.0686 1249.35 86.0392C1252.38 83.0098 1256.48 81.3079 1260.77 81.3079ZM1260.77 75.9233C1256.51 75.9233 1252.35 77.1865 1248.8 79.5532C1245.26 81.9198 1242.5 85.2837 1240.87 89.2193C1239.24 93.1549 1238.81 97.4856 1239.64 101.664C1240.48 105.842 1242.53 109.679 1245.54 112.692C1248.55 115.704 1252.39 117.755 1256.57 118.586C1260.75 119.417 1265.08 118.991 1269.01 117.361C1272.95 115.73 1276.31 112.97 1278.68 109.428C1281.04 105.886 1282.31 101.722 1282.31 97.4617C1282.31 91.7493 1280.04 86.271 1276 82.2317C1271.96 78.1925 1266.48 75.9233 1260.77 75.9233Z" fill="white"/>
<path d="M1274.23 49H1220.38C1218.96 49 1217.59 49.5673 1216.58 50.5771C1215.57 51.5869 1215 52.9565 1215 54.3846V108.231C1215 109.659 1215.57 111.028 1216.58 112.038C1217.59 113.048 1218.96 113.615 1220.38 113.615H1231.15V108.231H1220.38V70.5384H1279.62V54.3846C1279.62 52.9565 1279.05 51.5869 1278.04 50.5771C1277.03 49.5673 1275.66 49 1274.23 49ZM1220.38 65.1538V54.3846H1274.23V65.1538H1220.38Z" fill="white"/>
<path d="M1255.38 89.3849V105.539L1268.85 97.4618L1255.38 89.3849Z" fill="white"/>
</svg>
