<svg width="1363" height="167" viewBox="0 0 1363 167" fill="none" xmlns="http://www.w3.org/2000/svg">
<rect width="1363" height="167" rx="15" fill="#F0F0F0"/>
<path d="M0 15C0 6.71573 6.71573 0 15 0H37V167H15C6.71573 167 0 160.284 0 152V15Z" fill="#424241"/>
<path d="M95.1289 40.9375H98.1055L102.488 53.4648L106.871 40.9375H109.848L103.684 58H101.293L95.1289 40.9375ZM93.5234 40.9375H96.4883L97.0273 53.1484V58H93.5234V40.9375ZM108.488 40.9375H111.465V58H107.949V53.1484L108.488 40.9375ZM121.836 54.9648V45.3203H125.211V58H122.035L121.836 54.9648ZM122.211 52.3633L123.207 52.3398C123.207 53.1836 123.109 53.9688 122.914 54.6953C122.719 55.4141 122.426 56.0391 122.035 56.5703C121.645 57.0938 121.152 57.5039 120.559 57.8008C119.965 58.0898 119.266 58.2344 118.461 58.2344C117.844 58.2344 117.273 58.1484 116.75 57.9766C116.234 57.7969 115.789 57.5195 115.414 57.1445C115.047 56.7617 114.758 56.2734 114.547 55.6797C114.344 55.0781 114.242 54.3555 114.242 53.5117V45.3203H117.617V53.5352C117.617 53.9102 117.66 54.2266 117.746 54.4844C117.84 54.7422 117.969 54.9531 118.133 55.1172C118.297 55.2812 118.488 55.3984 118.707 55.4688C118.934 55.5391 119.184 55.5742 119.457 55.5742C120.152 55.5742 120.699 55.4336 121.098 55.1523C121.504 54.8711 121.789 54.4883 121.953 54.0039C122.125 53.5117 122.211 52.9648 122.211 52.3633ZM131.352 40V58H127.965V40H131.352ZM140.352 45.3203V47.7109H132.969V45.3203H140.352ZM134.797 42.1914H138.172V54.1797C138.172 54.5469 138.219 54.8281 138.312 55.0234C138.414 55.2188 138.562 55.3555 138.758 55.4336C138.953 55.5039 139.199 55.5391 139.496 55.5391C139.707 55.5391 139.895 55.5312 140.059 55.5156C140.23 55.4922 140.375 55.4688 140.492 55.4453L140.504 57.9297C140.215 58.0234 139.902 58.0977 139.566 58.1523C139.23 58.207 138.859 58.2344 138.453 58.2344C137.711 58.2344 137.062 58.1133 136.508 57.8711C135.961 57.6211 135.539 57.2227 135.242 56.6758C134.945 56.1289 134.797 55.4102 134.797 54.5195V42.1914ZM145.836 45.3203V58H142.449V45.3203H145.836ZM142.238 42.0156C142.238 41.5234 142.41 41.1172 142.754 40.7969C143.098 40.4766 143.559 40.3164 144.137 40.3164C144.707 40.3164 145.164 40.4766 145.508 40.7969C145.859 41.1172 146.035 41.5234 146.035 42.0156C146.035 42.5078 145.859 42.9141 145.508 43.2344C145.164 43.5547 144.707 43.7148 144.137 43.7148C143.559 43.7148 143.098 43.5547 142.754 43.2344C142.41 42.9141 142.238 42.5078 142.238 42.0156ZM154.988 54.4375L159.008 40.9375H162.922L156.98 58H154.402L154.988 54.4375ZM151.285 40.9375L155.293 54.4375L155.902 58H153.301L147.395 40.9375H151.285ZM169.625 58.2344C168.641 58.2344 167.758 58.0781 166.977 57.7656C166.195 57.4453 165.531 57.0039 164.984 56.4414C164.445 55.8789 164.031 55.2266 163.742 54.4844C163.453 53.7344 163.309 52.9375 163.309 52.0938V51.625C163.309 50.6641 163.445 49.7852 163.719 48.9883C163.992 48.1914 164.383 47.5 164.891 46.9141C165.406 46.3281 166.031 45.8789 166.766 45.5664C167.5 45.2461 168.328 45.0859 169.25 45.0859C170.148 45.0859 170.945 45.2344 171.641 45.5312C172.336 45.8281 172.918 46.25 173.387 46.7969C173.863 47.3438 174.223 48 174.465 48.7656C174.707 49.5234 174.828 50.3672 174.828 51.2969V52.7031H164.75V50.4531H171.512V50.1953C171.512 49.7266 171.426 49.3086 171.254 48.9414C171.09 48.5664 170.84 48.2695 170.504 48.0508C170.168 47.832 169.738 47.7227 169.215 47.7227C168.77 47.7227 168.387 47.8203 168.066 48.0156C167.746 48.2109 167.484 48.4844 167.281 48.8359C167.086 49.1875 166.938 49.6016 166.836 50.0781C166.742 50.5469 166.695 51.0625 166.695 51.625V52.0938C166.695 52.6016 166.766 53.0703 166.906 53.5C167.055 53.9297 167.262 54.3008 167.527 54.6133C167.801 54.9258 168.129 55.168 168.512 55.3398C168.902 55.5117 169.344 55.5977 169.836 55.5977C170.445 55.5977 171.012 55.4805 171.535 55.2461C172.066 55.0039 172.523 54.6406 172.906 54.1562L174.547 55.9375C174.281 56.3203 173.918 56.6875 173.457 57.0391C173.004 57.3906 172.457 57.6797 171.816 57.9062C171.176 58.125 170.445 58.2344 169.625 58.2344ZM180.055 48.0273V58H176.68V45.3203H179.844L180.055 48.0273ZM179.562 51.2148H178.648C178.648 50.2773 178.77 49.4336 179.012 48.6836C179.254 47.9258 179.594 47.2812 180.031 46.75C180.469 46.2109 180.988 45.8008 181.59 45.5195C182.199 45.2305 182.879 45.0859 183.629 45.0859C184.223 45.0859 184.766 45.1719 185.258 45.3438C185.75 45.5156 186.172 45.7891 186.523 46.1641C186.883 46.5391 187.156 47.0352 187.344 47.6523C187.539 48.2695 187.637 49.0234 187.637 49.9141V58H184.238V49.9023C184.238 49.3398 184.16 48.9023 184.004 48.5898C183.848 48.2773 183.617 48.0586 183.312 47.9336C183.016 47.8008 182.648 47.7344 182.211 47.7344C181.758 47.7344 181.363 47.8242 181.027 48.0039C180.699 48.1836 180.426 48.4336 180.207 48.7539C179.996 49.0664 179.836 49.4336 179.727 49.8555C179.617 50.2773 179.562 50.7305 179.562 51.2148ZM197.691 55.2344V40H201.09V58H198.031L197.691 55.2344ZM189.676 51.8125V51.5664C189.676 50.5977 189.785 49.7188 190.004 48.9297C190.223 48.1328 190.543 47.4492 190.965 46.8789C191.387 46.3086 191.906 45.8672 192.523 45.5547C193.141 45.2422 193.844 45.0859 194.633 45.0859C195.375 45.0859 196.023 45.2422 196.578 45.5547C197.141 45.8672 197.617 46.3125 198.008 46.8906C198.406 47.4609 198.727 48.1367 198.969 48.918C199.211 49.6914 199.387 50.5391 199.496 51.4609V52C199.387 52.8828 199.211 53.7031 198.969 54.4609C198.727 55.2188 198.406 55.8828 198.008 56.4531C197.617 57.0156 197.141 57.4531 196.578 57.7656C196.016 58.0781 195.359 58.2344 194.609 58.2344C193.82 58.2344 193.117 58.0742 192.5 57.7539C191.891 57.4336 191.375 56.9844 190.953 56.4062C190.539 55.8281 190.223 55.1484 190.004 54.3672C189.785 53.5859 189.676 52.7344 189.676 51.8125ZM193.051 51.5664V51.8125C193.051 52.3359 193.09 52.8242 193.168 53.2773C193.254 53.7305 193.391 54.1328 193.578 54.4844C193.773 54.8281 194.023 55.0977 194.328 55.293C194.641 55.4805 195.02 55.5742 195.465 55.5742C196.043 55.5742 196.52 55.4453 196.895 55.1875C197.27 54.9219 197.555 54.5586 197.75 54.0977C197.953 53.6367 198.07 53.1055 198.102 52.5039V50.9688C198.078 50.4766 198.008 50.0352 197.891 49.6445C197.781 49.2461 197.617 48.9062 197.398 48.625C197.188 48.3438 196.922 48.125 196.602 47.9688C196.289 47.8125 195.918 47.7344 195.488 47.7344C195.051 47.7344 194.676 47.8359 194.363 48.0391C194.051 48.2344 193.797 48.5039 193.602 48.8477C193.414 49.1914 193.273 49.5977 193.18 50.0664C193.094 50.5273 193.051 51.0273 193.051 51.5664ZM203.188 51.7891V51.543C203.188 50.6133 203.32 49.7578 203.586 48.9766C203.852 48.1875 204.238 47.5039 204.746 46.9258C205.254 46.3477 205.879 45.8984 206.621 45.5781C207.363 45.25 208.215 45.0859 209.176 45.0859C210.137 45.0859 210.992 45.25 211.742 45.5781C212.492 45.8984 213.121 46.3477 213.629 46.9258C214.145 47.5039 214.535 48.1875 214.801 48.9766C215.066 49.7578 215.199 50.6133 215.199 51.543V51.7891C215.199 52.7109 215.066 53.5664 214.801 54.3555C214.535 55.1367 214.145 55.8203 213.629 56.4062C213.121 56.9844 212.496 57.4336 211.754 57.7539C211.012 58.0742 210.16 58.2344 209.199 58.2344C208.238 58.2344 207.383 58.0742 206.633 57.7539C205.891 57.4336 205.262 56.9844 204.746 56.4062C204.238 55.8203 203.852 55.1367 203.586 54.3555C203.32 53.5664 203.188 52.7109 203.188 51.7891ZM206.562 51.543V51.7891C206.562 52.3203 206.609 52.8164 206.703 53.2773C206.797 53.7383 206.945 54.1445 207.148 54.4961C207.359 54.8398 207.633 55.1094 207.969 55.3047C208.305 55.5 208.715 55.5977 209.199 55.5977C209.668 55.5977 210.07 55.5 210.406 55.3047C210.742 55.1094 211.012 54.8398 211.215 54.4961C211.418 54.1445 211.566 53.7383 211.66 53.2773C211.762 52.8164 211.812 52.3203 211.812 51.7891V51.543C211.812 51.0273 211.762 50.543 211.66 50.0898C211.566 49.6289 211.414 49.2227 211.203 48.8711C211 48.5117 210.73 48.2305 210.395 48.0273C210.059 47.8242 209.652 47.7227 209.176 47.7227C208.699 47.7227 208.293 47.8242 207.957 48.0273C207.629 48.2305 207.359 48.5117 207.148 48.8711C206.945 49.2227 206.797 49.6289 206.703 50.0898C206.609 50.543 206.562 51.0273 206.562 51.543ZM220.648 48.0859V58H217.273V45.3203H220.449L220.648 48.0859ZM224.469 45.2383L224.41 48.3672C224.246 48.3438 224.047 48.3242 223.812 48.3086C223.586 48.2852 223.379 48.2734 223.191 48.2734C222.715 48.2734 222.301 48.3359 221.949 48.4609C221.605 48.5781 221.316 48.7539 221.082 48.9883C220.855 49.2227 220.684 49.5078 220.566 49.8438C220.457 50.1797 220.395 50.5625 220.379 50.9922L219.699 50.7812C219.699 49.9609 219.781 49.207 219.945 48.5195C220.109 47.8242 220.348 47.2188 220.66 46.7031C220.98 46.1875 221.371 45.7891 221.832 45.5078C222.293 45.2266 222.82 45.0859 223.414 45.0859C223.602 45.0859 223.793 45.1016 223.988 45.1328C224.184 45.1562 224.344 45.1914 224.469 45.2383Z" fill="#888888"/>
<path d="M102.635 86.0078V118H94.9443V86.0078H102.635ZM115.181 99.2573V118H107.776V94.2256H114.72L115.181 99.2573ZM114.28 105.3L112.588 105.344C112.588 103.674 112.786 102.136 113.182 100.729C113.577 99.3232 114.163 98.1001 114.939 97.0601C115.716 96.02 116.668 95.2144 117.796 94.6431C118.938 94.0718 120.257 93.7861 121.751 93.7861C122.791 93.7861 123.736 93.9473 124.585 94.2695C125.435 94.5771 126.167 95.0679 126.783 95.7417C127.398 96.4009 127.867 97.2651 128.189 98.3345C128.526 99.3892 128.694 100.656 128.694 102.136V118H121.29V103.081C121.29 102.07 121.172 101.308 120.938 100.795C120.718 100.283 120.396 99.9385 119.971 99.7627C119.546 99.5869 119.026 99.499 118.411 99.499C117.767 99.499 117.188 99.6455 116.675 99.9385C116.163 100.231 115.723 100.642 115.357 101.169C115.005 101.682 114.734 102.29 114.544 102.993C114.368 103.696 114.28 104.465 114.28 105.3ZM127.859 105.3L125.794 105.344C125.794 103.674 125.977 102.136 126.343 100.729C126.724 99.3232 127.288 98.1001 128.035 97.0601C128.797 96.02 129.742 95.2144 130.87 94.6431C131.998 94.0718 133.309 93.7861 134.803 93.7861C135.887 93.7861 136.883 93.9473 137.791 94.2695C138.699 94.5918 139.483 95.1118 140.142 95.8296C140.801 96.5474 141.314 97.4995 141.68 98.686C142.046 99.8579 142.229 101.308 142.229 103.037V118H134.803V103.037C134.803 102.055 134.686 101.315 134.451 100.817C134.231 100.305 133.909 99.9604 133.484 99.7847C133.06 99.5942 132.554 99.499 131.968 99.499C131.265 99.499 130.657 99.6455 130.145 99.9385C129.632 100.231 129.2 100.642 128.848 101.169C128.511 101.682 128.262 102.29 128.101 102.993C127.94 103.696 127.859 104.465 127.859 105.3ZM153.941 98.7959V127.141H146.536V94.2256H153.436L153.941 98.7959ZM168.531 105.827V106.289C168.531 108.017 168.333 109.621 167.938 111.101C167.542 112.58 166.956 113.869 166.18 114.968C165.403 116.066 164.437 116.923 163.279 117.539C162.137 118.139 160.811 118.439 159.302 118.439C157.881 118.439 156.658 118.125 155.633 117.495C154.607 116.865 153.75 115.993 153.062 114.88C152.374 113.767 151.817 112.492 151.392 111.057C150.967 109.621 150.63 108.105 150.381 106.508V105.915C150.63 104.201 150.967 102.612 151.392 101.147C151.817 99.6675 152.374 98.3784 153.062 97.2798C153.75 96.1812 154.6 95.3242 155.611 94.709C156.636 94.0938 157.859 93.7861 159.28 93.7861C160.789 93.7861 162.115 94.0718 163.257 94.6431C164.415 95.2144 165.381 96.0347 166.158 97.104C166.949 98.1587 167.542 99.4258 167.938 100.905C168.333 102.385 168.531 104.025 168.531 105.827ZM161.126 106.289V105.827C161.126 104.904 161.06 104.062 160.928 103.3C160.796 102.524 160.584 101.85 160.291 101.279C160.013 100.708 159.639 100.268 159.17 99.9604C158.702 99.6528 158.123 99.499 157.435 99.499C156.644 99.499 155.977 99.6235 155.435 99.8726C154.908 100.107 154.483 100.473 154.161 100.971C153.853 101.455 153.633 102.062 153.501 102.795C153.384 103.513 153.333 104.355 153.348 105.322V107.124C153.318 108.237 153.428 109.218 153.677 110.068C153.926 110.903 154.358 111.555 154.974 112.023C155.589 112.492 156.424 112.727 157.479 112.727C158.182 112.727 158.768 112.565 159.236 112.243C159.705 111.906 160.079 111.445 160.357 110.859C160.635 110.258 160.833 109.57 160.95 108.793C161.067 108.017 161.126 107.182 161.126 106.289ZM179.649 84.25V118H172.222V84.25H179.649ZM195.733 118.439C193.799 118.439 192.071 118.139 190.547 117.539C189.024 116.923 187.735 116.081 186.68 115.012C185.64 113.942 184.842 112.712 184.285 111.32C183.743 109.929 183.472 108.457 183.472 106.904V106.069C183.472 104.326 183.714 102.714 184.197 101.235C184.681 99.7407 185.398 98.437 186.351 97.3237C187.303 96.2104 188.497 95.3462 189.932 94.731C191.368 94.1011 193.038 93.7861 194.942 93.7861C196.626 93.7861 198.135 94.0571 199.468 94.5991C200.801 95.1411 201.929 95.9175 202.852 96.9282C203.79 97.939 204.5 99.1621 204.983 100.598C205.481 102.033 205.73 103.645 205.73 105.432V108.442H186.307V103.806H198.501V103.234C198.516 102.443 198.377 101.77 198.084 101.213C197.806 100.656 197.396 100.231 196.854 99.9385C196.312 99.6455 195.652 99.499 194.876 99.499C194.07 99.499 193.404 99.6748 192.876 100.026C192.364 100.378 191.961 100.861 191.668 101.477C191.39 102.077 191.192 102.773 191.075 103.564C190.958 104.355 190.899 105.19 190.899 106.069V106.904C190.899 107.783 191.016 108.581 191.25 109.299C191.5 110.017 191.851 110.632 192.305 111.145C192.774 111.643 193.331 112.031 193.975 112.309C194.634 112.587 195.381 112.727 196.216 112.727C197.227 112.727 198.223 112.536 199.205 112.155C200.186 111.774 201.028 111.145 201.731 110.266L205.093 114.265C204.61 114.953 203.921 115.62 203.028 116.264C202.149 116.909 201.094 117.436 199.864 117.846C198.633 118.242 197.256 118.439 195.733 118.439ZM216.211 99.2573V118H208.807V94.2256H215.75L216.211 99.2573ZM215.311 105.3L213.619 105.344C213.619 103.674 213.816 102.136 214.212 100.729C214.607 99.3232 215.193 98.1001 215.97 97.0601C216.746 96.02 217.698 95.2144 218.826 94.6431C219.969 94.0718 221.287 93.7861 222.781 93.7861C223.821 93.7861 224.766 93.9473 225.616 94.2695C226.465 94.5771 227.198 95.0679 227.813 95.7417C228.428 96.4009 228.897 97.2651 229.219 98.3345C229.556 99.3892 229.725 100.656 229.725 102.136V118H222.32V103.081C222.32 102.07 222.203 101.308 221.968 100.795C221.749 100.283 221.426 99.9385 221.001 99.7627C220.577 99.5869 220.057 99.499 219.441 99.499C218.797 99.499 218.218 99.6455 217.706 99.9385C217.193 100.231 216.753 100.642 216.387 101.169C216.036 101.682 215.765 102.29 215.574 102.993C215.398 103.696 215.311 104.465 215.311 105.3ZM228.89 105.3L226.824 105.344C226.824 103.674 227.007 102.136 227.374 100.729C227.754 99.3232 228.318 98.1001 229.065 97.0601C229.827 96.02 230.772 95.2144 231.9 94.6431C233.028 94.0718 234.339 93.7861 235.833 93.7861C236.917 93.7861 237.913 93.9473 238.821 94.2695C239.729 94.5918 240.513 95.1118 241.172 95.8296C241.832 96.5474 242.344 97.4995 242.71 98.686C243.077 99.8579 243.26 101.308 243.26 103.037V118H235.833V103.037C235.833 102.055 235.716 101.315 235.481 100.817C235.262 100.305 234.939 99.9604 234.515 99.7847C234.09 99.5942 233.584 99.499 232.999 99.499C232.295 99.499 231.688 99.6455 231.175 99.9385C230.662 100.231 230.23 100.642 229.878 101.169C229.542 101.682 229.292 102.29 229.131 102.993C228.97 103.696 228.89 104.465 228.89 105.3ZM259.014 118.439C257.081 118.439 255.352 118.139 253.829 117.539C252.305 116.923 251.016 116.081 249.961 115.012C248.921 113.942 248.123 112.712 247.566 111.32C247.024 109.929 246.753 108.457 246.753 106.904V106.069C246.753 104.326 246.995 102.714 247.479 101.235C247.962 99.7407 248.68 98.437 249.632 97.3237C250.584 96.2104 251.778 95.3462 253.213 94.731C254.649 94.1011 256.319 93.7861 258.223 93.7861C259.908 93.7861 261.417 94.0571 262.75 94.5991C264.083 95.1411 265.21 95.9175 266.133 96.9282C267.071 97.939 267.781 99.1621 268.265 100.598C268.763 102.033 269.012 103.645 269.012 105.432V108.442H249.588V103.806H261.783V103.234C261.797 102.443 261.658 101.77 261.365 101.213C261.087 100.656 260.677 100.231 260.135 99.9385C259.593 99.6455 258.934 99.499 258.157 99.499C257.352 99.499 256.685 99.6748 256.158 100.026C255.645 100.378 255.242 100.861 254.949 101.477C254.671 102.077 254.473 102.773 254.356 103.564C254.239 104.355 254.18 105.19 254.18 106.069V106.904C254.18 107.783 254.297 108.581 254.532 109.299C254.781 110.017 255.132 110.632 255.586 111.145C256.055 111.643 256.612 112.031 257.256 112.309C257.916 112.587 258.663 112.727 259.498 112.727C260.508 112.727 261.504 112.536 262.486 112.155C263.467 111.774 264.31 111.145 265.013 110.266L268.375 114.265C267.891 114.953 267.203 115.62 266.309 116.264C265.43 116.909 264.375 117.436 263.145 117.846C261.915 118.242 260.538 118.439 259.014 118.439ZM279.295 99.3013V118H271.89V94.2256H278.833L279.295 99.3013ZM278.416 105.3L276.68 105.344C276.68 103.527 276.9 101.909 277.339 100.488C277.779 99.0522 278.401 97.8364 279.207 96.8403C280.013 95.8442 280.972 95.0898 282.085 94.5771C283.213 94.0498 284.466 93.7861 285.843 93.7861C286.941 93.7861 287.945 93.9473 288.853 94.2695C289.776 94.5918 290.567 95.1118 291.226 95.8296C291.9 96.5474 292.413 97.4995 292.764 98.686C293.13 99.8579 293.313 101.308 293.313 103.037V118H285.865V103.015C285.865 102.062 285.733 101.337 285.469 100.839C285.206 100.327 284.825 99.9751 284.327 99.7847C283.829 99.5942 283.221 99.499 282.503 99.499C281.741 99.499 281.097 99.6455 280.569 99.9385C280.042 100.231 279.617 100.642 279.295 101.169C278.987 101.682 278.76 102.29 278.614 102.993C278.482 103.696 278.416 104.465 278.416 105.3ZM309.947 94.2256V99.3672H295.621V94.2256H309.947ZM298.631 88.3149H306.036V110.244C306.036 110.874 306.109 111.364 306.255 111.716C306.402 112.053 306.651 112.294 307.002 112.441C307.369 112.573 307.852 112.639 308.453 112.639C308.877 112.639 309.229 112.631 309.507 112.617C309.786 112.587 310.049 112.551 310.298 112.507V117.802C309.668 118.007 309.009 118.161 308.321 118.264C307.632 118.381 306.9 118.439 306.124 118.439C304.542 118.439 303.187 118.19 302.059 117.692C300.945 117.194 300.096 116.411 299.51 115.341C298.924 114.272 298.631 112.88 298.631 111.167V88.3149ZM325.24 112.023V102.224C325.24 101.55 325.145 100.971 324.954 100.488C324.764 100.004 324.463 99.6309 324.053 99.3672C323.643 99.0889 323.094 98.9497 322.405 98.9497C321.849 98.9497 321.373 99.0449 320.977 99.2354C320.582 99.4258 320.281 99.7114 320.076 100.092C319.871 100.473 319.769 100.957 319.769 101.542H312.364C312.364 100.444 312.605 99.4258 313.089 98.4883C313.587 97.5361 314.29 96.7085 315.198 96.0054C316.121 95.3022 317.22 94.7603 318.494 94.3794C319.783 93.9839 321.219 93.7861 322.801 93.7861C324.69 93.7861 326.375 94.1011 327.854 94.731C329.349 95.3608 330.528 96.3057 331.392 97.5654C332.256 98.8105 332.688 100.378 332.688 102.268V112.001C332.688 113.554 332.776 114.733 332.952 115.539C333.128 116.33 333.377 117.026 333.699 117.626V118H326.272C325.921 117.268 325.657 116.374 325.481 115.319C325.32 114.25 325.24 113.151 325.24 112.023ZM326.141 103.476L326.185 107.431H322.911C322.222 107.431 321.636 107.526 321.153 107.717C320.684 107.907 320.303 108.171 320.01 108.508C319.732 108.83 319.527 109.196 319.395 109.606C319.278 110.017 319.219 110.449 319.219 110.903C319.219 111.342 319.322 111.738 319.527 112.089C319.747 112.426 320.04 112.69 320.406 112.88C320.772 113.071 321.182 113.166 321.636 113.166C322.457 113.166 323.152 113.012 323.724 112.705C324.31 112.382 324.756 111.994 325.064 111.54C325.372 111.086 325.525 110.661 325.525 110.266L327.151 113.298C326.858 113.884 326.521 114.477 326.141 115.078C325.774 115.678 325.313 116.235 324.756 116.748C324.214 117.246 323.548 117.656 322.757 117.978C321.966 118.286 321.006 118.439 319.878 118.439C318.414 118.439 317.066 118.139 315.835 117.539C314.62 116.938 313.646 116.103 312.913 115.034C312.181 113.95 311.814 112.705 311.814 111.298C311.814 110.068 312.034 108.969 312.474 108.002C312.928 107.036 313.609 106.215 314.517 105.542C315.425 104.868 316.583 104.355 317.989 104.003C319.395 103.652 321.05 103.476 322.955 103.476H326.141ZM349.322 94.2256V99.3672H334.996V94.2256H349.322ZM338.006 88.3149H345.411V110.244C345.411 110.874 345.484 111.364 345.63 111.716C345.777 112.053 346.026 112.294 346.377 112.441C346.744 112.573 347.227 112.639 347.828 112.639C348.252 112.639 348.604 112.631 348.882 112.617C349.161 112.587 349.424 112.551 349.673 112.507V117.802C349.043 118.007 348.384 118.161 347.696 118.264C347.007 118.381 346.275 118.439 345.499 118.439C343.917 118.439 342.562 118.19 341.434 117.692C340.32 117.194 339.471 116.411 338.885 115.341C338.299 114.272 338.006 112.88 338.006 111.167V88.3149ZM360.088 94.2256V118H352.662V94.2256H360.088ZM352.222 88.0952C352.222 87.0405 352.603 86.1763 353.365 85.5024C354.126 84.8286 355.115 84.4917 356.331 84.4917C357.547 84.4917 358.536 84.8286 359.297 85.5024C360.059 86.1763 360.44 87.0405 360.44 88.0952C360.44 89.1499 360.059 90.0142 359.297 90.688C358.536 91.3618 357.547 91.6987 356.331 91.6987C355.115 91.6987 354.126 91.3618 353.365 90.688C352.603 90.0142 352.222 89.1499 352.222 88.0952ZM363.736 106.354V105.893C363.736 104.15 363.985 102.546 364.483 101.081C364.981 99.6016 365.713 98.3198 366.68 97.2358C367.647 96.1519 368.841 95.3096 370.262 94.709C371.683 94.0938 373.323 93.7861 375.184 93.7861C377.059 93.7861 378.707 94.0938 380.127 94.709C381.563 95.3096 382.764 96.1519 383.731 97.2358C384.698 98.3198 385.43 99.6016 385.928 101.081C386.426 102.546 386.675 104.15 386.675 105.893V106.354C386.675 108.083 386.426 109.687 385.928 111.167C385.43 112.631 384.698 113.913 383.731 115.012C382.764 116.096 381.57 116.938 380.149 117.539C378.729 118.139 377.088 118.439 375.228 118.439C373.367 118.439 371.719 118.139 370.284 117.539C368.848 116.938 367.647 116.096 366.68 115.012C365.713 113.913 364.981 112.631 364.483 111.167C363.985 109.687 363.736 108.083 363.736 106.354ZM371.141 105.893V106.354C371.141 107.248 371.207 108.083 371.338 108.859C371.47 109.636 371.69 110.317 371.998 110.903C372.305 111.474 372.723 111.921 373.25 112.243C373.777 112.565 374.437 112.727 375.228 112.727C376.004 112.727 376.648 112.565 377.161 112.243C377.688 111.921 378.106 111.474 378.414 110.903C378.721 110.317 378.941 109.636 379.073 108.859C379.205 108.083 379.271 107.248 379.271 106.354V105.893C379.271 105.029 379.205 104.216 379.073 103.454C378.941 102.678 378.721 101.997 378.414 101.411C378.106 100.81 377.688 100.341 377.161 100.004C376.634 99.6675 375.975 99.499 375.184 99.499C374.407 99.499 373.755 99.6675 373.228 100.004C372.715 100.341 372.305 100.81 371.998 101.411C371.69 101.997 371.47 102.678 371.338 103.454C371.207 104.216 371.141 105.029 371.141 105.893ZM397.244 99.3013V118H389.839V94.2256H396.783L397.244 99.3013ZM396.365 105.3L394.629 105.344C394.629 103.527 394.849 101.909 395.289 100.488C395.728 99.0522 396.351 97.8364 397.156 96.8403C397.962 95.8442 398.921 95.0898 400.035 94.5771C401.163 94.0498 402.415 93.7861 403.792 93.7861C404.891 93.7861 405.894 93.9473 406.802 94.2695C407.725 94.5918 408.516 95.1118 409.175 95.8296C409.849 96.5474 410.362 97.4995 410.713 98.686C411.08 99.8579 411.263 101.308 411.263 103.037V118H403.814V103.015C403.814 102.062 403.682 101.337 403.418 100.839C403.155 100.327 402.774 99.9751 402.276 99.7847C401.778 99.5942 401.17 99.499 400.452 99.499C399.69 99.499 399.046 99.6455 398.519 99.9385C397.991 100.231 397.566 100.642 397.244 101.169C396.937 101.682 396.709 102.29 396.563 102.993C396.431 103.696 396.365 104.465 396.365 105.3Z" fill="#424241"/>
<path d="M1363 15C1363 6.71573 1356.28 0 1348 0H1134V167H1348C1356.28 167 1363 160.284 1363 152V15Z" fill="#62C6FF"/>
<path d="M1281.5 49H1216.5L1214 51.5V116.5L1216.5 119H1281.5L1284 116.5V51.5L1281.5 49ZM1279 114H1234V104H1245.5C1247 107 1250.5 109 1254 109C1259.5 109 1264 104.5 1264 99C1264 93.5 1259.5 89 1254 89C1248.5 89 1244 93.5 1244 99H1229V114H1219V54H1229V65.5C1226 67 1224 70.5 1224 74C1224 79.5 1228.5 84 1234 84C1239.5 84 1244 79.5 1244 74H1254C1254 79.5 1258.5 84 1264 84C1269.5 84 1274 79.5 1274 74C1274 68.5 1269.5 64 1264 64C1260.5 64 1257 66 1255.5 69H1242.5C1241 66 1237.5 64 1234 64V54H1279V114ZM1249 99C1249 96 1251 94 1254 94C1257 94 1259 96 1259 99C1259 102 1257 104 1254 104C1251 104 1249 102 1249 99ZM1234 69C1237 69 1239 71 1239 74C1239 77 1237 79 1234 79C1231 79 1229 77 1229 74C1229 71 1231 69 1234 69ZM1264 69C1267 69 1269 71 1269 74C1269 77 1267 79 1264 79C1261 79 1259 77 1259 74C1259 71 1261 69 1264 69Z" fill="white"/>
</svg>
